<svg xmlns="http://www.w3.org/2000/svg" xmlns:xlink="http://www.w3.org/1999/xlink" width="1500" zoomAndPan="magnify" viewBox="0 0 1125 332.999992" height="444" preserveAspectRatio="xMidYMid meet" version="1.2"><defs><clipPath id="a88abc49b2"><path d="M 33.300781 47 L 149 47 L 149 184 L 33.300781 184 Z M 33.300781 47 "/></clipPath><clipPath id="ef1f2f686f"><path d="M 195 33.414062 L 226 33.414062 L 226 182 L 195 182 Z M 195 33.414062 "/></clipPath><clipPath id="1fd08842bc"><path d="M 1029 93 L 1091.550781 93 L 1091.550781 146 L 1029 146 Z M 1029 93 "/></clipPath><clipPath id="5d8bbbeb80"><path d="M 1004 144 L 1064 144 L 1064 208.164062 L 1004 208.164062 Z M 1004 144 "/></clipPath></defs><g id="71c9ffd568"><path style=" stroke:none;fill-rule:nonzero;fill:#e6e6e6;fill-opacity:1;" d="M 670.375 183.433594 C 662.410156 183.433594 655.171875 181.230469 648.691406 176.808594 C 642.191406 172.40625 636.996094 166.398438 633.066406 158.789062 C 629.140625 151.199219 627.183594 142.550781 627.183594 132.878906 C 627.183594 123.210938 629.140625 114.5625 633.066406 106.96875 C 636.996094 99.378906 642.3125 93.441406 649.058594 89.144531 C 655.804688 84.863281 663.398438 82.714844 671.851562 82.714844 C 676.75 82.714844 681.222656 83.417969 685.273438 84.828125 C 689.328125 86.238281 692.867188 88.226562 695.933594 90.800781 C 698.996094 93.371094 701.53125 96.3125 703.558594 99.625 C 705.585938 102.9375 706.957031 106.496094 707.699219 110.28125 L 702.730469 108.996094 L 702.730469 84.742188 L 725.523438 84.742188 L 725.523438 181.601562 L 702.554688 181.601562 L 702.554688 158.4375 L 707.890625 157.523438 C 707.027344 160.835938 705.480469 164.039062 703.207031 167.175781 C 700.933594 170.292969 698.117188 173.058594 694.75 175.453125 C 691.386719 177.847656 687.636719 179.769531 683.550781 181.25 C 679.445312 182.710938 675.058594 183.449219 670.410156 183.449219 Z M 676.625 163.386719 C 681.894531 163.386719 686.542969 162.101562 690.59375 159.53125 C 694.644531 156.957031 697.800781 153.367188 700.054688 148.785156 C 702.324219 144.1875 703.453125 138.886719 703.453125 132.878906 C 703.453125 126.875 702.324219 121.800781 700.054688 117.257812 C 697.78125 112.730469 694.628906 109.171875 690.59375 106.601562 C 686.542969 104.027344 681.894531 102.742188 676.625 102.742188 C 671.359375 102.742188 666.726562 104.027344 662.746094 106.601562 C 658.765625 109.171875 655.664062 112.730469 653.464844 117.257812 C 651.261719 121.785156 650.152344 126.996094 650.152344 132.878906 C 650.152344 138.761719 651.261719 144.1875 653.464844 148.785156 C 655.664062 153.382812 658.765625 156.957031 662.746094 159.53125 C 666.726562 162.101562 671.359375 163.386719 676.625 163.386719 Z M 676.625 163.386719 "/><path style=" stroke:none;fill-rule:nonzero;fill:#e6e6e6;fill-opacity:1;" d="M 773.117188 183.433594 C 764.539062 183.433594 756.859375 181.988281 750.042969 179.117188 C 743.242188 176.246094 737.695312 172.105469 733.414062 166.71875 L 748.121094 154.035156 C 751.804688 158.210938 755.910156 161.203125 760.433594 163.035156 C 764.960938 164.867188 769.753906 165.800781 774.773438 165.800781 C 776.851562 165.800781 778.71875 165.554688 780.375 165.0625 C 782.03125 164.566406 783.472656 163.847656 784.691406 162.859375 C 785.90625 161.875 786.855469 160.746094 787.542969 159.460938 C 788.210938 158.175781 788.546875 156.730469 788.546875 155.144531 C 788.546875 152.203125 787.4375 149.878906 785.234375 148.167969 C 784.003906 147.304688 782.082031 146.390625 779.441406 145.402344 C 776.796875 144.417969 773.398438 143.449219 769.242188 142.460938 C 762.621094 140.734375 757.105469 138.761719 752.703125 136.492188 C 748.300781 134.21875 744.863281 131.683594 742.414062 128.863281 C 740.335938 126.539062 738.769531 123.898438 737.730469 120.957031 C 736.691406 118.015625 736.164062 114.824219 736.164062 111.390625 C 736.164062 107.109375 737.113281 103.21875 739.015625 99.730469 C 740.917969 96.242188 743.523438 93.214844 746.820312 90.625 C 750.128906 88.050781 753.988281 86.097656 758.390625 84.742188 C 762.796875 83.402344 767.394531 82.714844 772.183594 82.714844 C 776.976562 82.714844 781.835938 83.332031 786.433594 84.546875 C 791.03125 85.78125 795.3125 87.523438 799.292969 89.777344 C 803.273438 92.050781 806.671875 94.78125 809.492188 97.953125 L 797.003906 111.742188 C 794.675781 109.542969 792.121094 107.585938 789.375 105.859375 C 786.609375 104.152344 783.828125 102.777344 781.007812 101.722656 C 778.191406 100.679688 775.546875 100.152344 773.101562 100.152344 C 770.652344 100.152344 768.679688 100.363281 766.847656 100.804688 C 765.015625 101.226562 763.480469 101.878906 762.25 102.726562 C 761.015625 103.589844 760.082031 104.664062 759.394531 105.949219 C 758.726562 107.234375 758.390625 108.730469 758.390625 110.457031 C 758.515625 111.917969 758.921875 113.3125 759.589844 114.597656 C 760.257812 115.882812 761.210938 116.957031 762.441406 117.800781 C 763.78125 118.664062 765.808594 119.632812 768.503906 120.746094 C 771.199219 121.855469 774.683594 122.894531 778.984375 123.863281 C 784.988281 125.445312 790.007812 127.226562 794.0625 129.199219 C 798.113281 131.152344 801.28125 133.425781 803.625 136 C 805.949219 138.199219 807.605469 140.773438 808.59375 143.714844 C 809.578125 146.65625 810.054688 149.894531 810.054688 153.453125 C 810.054688 159.214844 808.433594 164.355469 805.175781 168.882812 C 801.933594 173.410156 797.511719 176.96875 791.945312 179.539062 C 786.363281 182.113281 780.09375 183.398438 773.117188 183.398438 Z M 773.117188 183.433594 "/><path style=" stroke:none;fill-rule:nonzero;fill:#e6e6e6;fill-opacity:1;" d="M 868.074219 183.433594 C 857.910156 183.433594 848.929688 181.285156 841.144531 177.003906 C 833.359375 172.722656 827.296875 166.859375 822.949219 159.441406 C 818.597656 152.027344 816.429688 143.554688 816.429688 133.988281 C 816.429688 126.398438 817.644531 119.476562 820.113281 113.222656 C 822.558594 106.96875 825.960938 101.5625 830.3125 96.964844 C 834.660156 92.367188 839.875 88.808594 845.933594 86.308594 C 851.992188 83.808594 858.652344 82.539062 865.875 82.539062 C 872.25 82.539062 878.1875 83.773438 883.699219 86.21875 C 889.210938 88.667969 893.984375 92.015625 898.039062 96.242188 C 902.089844 100.46875 905.171875 105.488281 907.320312 111.320312 C 909.46875 117.132812 910.472656 123.472656 910.347656 130.34375 L 910.171875 138.253906 L 831.703125 138.253906 L 827.476562 122.824219 L 891.253906 122.824219 L 888.3125 125.941406 L 888.3125 121.890625 C 887.945312 118.085938 886.730469 114.753906 884.632812 111.867188 C 882.554688 108.996094 879.878906 106.722656 876.636719 105.066406 C 873.394531 103.410156 869.800781 102.582031 865.890625 102.582031 C 859.886719 102.582031 854.828125 103.746094 850.726562 106.070312 C 846.621094 108.398438 843.519531 111.742188 841.441406 116.09375 C 839.363281 120.445312 838.324219 125.871094 838.324219 132.351562 C 838.324219 138.832031 839.644531 144.066406 842.269531 148.714844 C 844.894531 153.367188 848.648438 156.957031 853.472656 159.460938 C 858.316406 161.980469 863.972656 163.230469 870.472656 163.230469 C 874.996094 163.230469 879.171875 162.488281 882.960938 161.027344 C 886.765625 159.566406 890.867188 156.921875 895.273438 153.117188 L 906.472656 168.742188 C 903.164062 171.808594 899.394531 174.414062 895.167969 176.546875 C 890.9375 178.695312 886.5 180.386719 881.832031 181.601562 C 877.183594 182.816406 872.585938 183.433594 868.039062 183.433594 Z M 868.074219 183.433594 "/><g clip-rule="nonzero" clip-path="url(#a88abc49b2)"><path style=" stroke:none;fill-rule:nonzero;fill:#e6e6e6;fill-opacity:1;" d="M 99.039062 183.433594 C 89.441406 183.433594 80.667969 181.796875 72.707031 178.5 C 64.746094 175.226562 57.855469 170.523438 52.0625 164.390625 C 46.25 158.261719 41.742188 151.003906 38.515625 142.601562 C 35.292969 134.203125 33.691406 125.023438 33.691406 115.039062 C 33.691406 105.050781 35.398438 96.542969 38.796875 88.335938 C 42.214844 80.125 46.953125 72.921875 53.011719 66.738281 C 59.074219 60.554688 66.152344 55.746094 74.222656 52.347656 C 82.304688 48.929688 91.078125 47.222656 100.554688 47.222656 C 107 47.222656 113.238281 48.171875 119.296875 50.058594 C 125.355469 51.960938 130.921875 54.585938 135.957031 57.914062 C 141.015625 61.261719 145.242188 65.152344 148.660156 69.558594 L 132.929688 86.800781 C 129.636719 83.382812 126.269531 80.511719 122.800781 78.1875 C 119.332031 75.84375 115.71875 74.085938 112.003906 72.886719 C 108.269531 71.6875 104.464844 71.089844 100.554688 71.089844 C 94.742188 71.089844 89.28125 72.164062 84.171875 74.3125 C 79.046875 76.460938 74.625 79.492188 70.910156 83.402344 C 67.175781 87.3125 64.234375 91.960938 62.101562 97.316406 C 59.953125 102.691406 58.878906 108.644531 58.878906 115.214844 C 58.878906 121.785156 59.917969 127.964844 62.015625 133.390625 C 64.09375 138.816406 67.070312 143.5 70.925781 147.410156 C 74.785156 151.324219 79.382812 154.316406 84.753906 156.414062 C 90.125 158.492188 96.027344 159.546875 102.472656 159.546875 C 106.648438 159.546875 110.683594 158.984375 114.59375 157.839844 C 118.503906 156.695312 122.132812 155.09375 125.476562 153.011719 C 128.824219 150.933594 131.890625 148.503906 134.671875 145.722656 L 146.792969 165.238281 C 143.761719 168.65625 139.710938 171.738281 134.671875 174.519531 C 129.617188 177.304688 123.964844 179.46875 117.726562 181.054688 C 111.476562 182.640625 105.257812 183.433594 99.074219 183.433594 Z M 99.039062 183.433594 "/></g><path style=" stroke:none;fill-rule:nonzero;fill:#e6e6e6;fill-opacity:1;" d="M 156.988281 41.375 L 180.46875 41.375 L 180.46875 181.546875 L 156.988281 181.546875 Z M 156.988281 41.375 "/><g clip-rule="nonzero" clip-path="url(#ef1f2f686f)"><path style=" stroke:none;fill-rule:nonzero;fill:#e6e6e6;fill-opacity:1;" d="M 210.589844 60.503906 C 205.921875 60.503906 202.292969 59.339844 199.703125 57 C 197.113281 54.65625 195.8125 51.34375 195.8125 47.046875 C 195.8125 43.011719 197.132812 39.71875 199.792969 37.199219 C 202.453125 34.679688 206.046875 33.414062 210.589844 33.414062 C 215.398438 33.414062 219.082031 34.574219 221.667969 36.917969 C 224.257812 39.261719 225.5625 42.625 225.5625 47.046875 C 225.5625 50.957031 224.242188 54.179688 221.582031 56.714844 C 218.921875 59.253906 215.257812 60.503906 210.589844 60.503906 Z M 199.230469 181.53125 L 199.230469 81.710938 L 222.53125 81.710938 L 222.53125 181.53125 Z M 199.230469 181.53125 "/></g><path style=" stroke:none;fill-rule:nonzero;fill:#e6e6e6;fill-opacity:1;" d="M 287.492188 183.433594 C 277.011719 183.433594 267.765625 181.230469 259.75 176.808594 C 251.71875 172.390625 245.484375 166.363281 240.992188 158.71875 C 236.5 151.074219 234.261719 142.339844 234.261719 132.492188 C 234.261719 124.671875 235.53125 117.539062 238.050781 111.089844 C 240.570312 104.644531 244.074219 99.0625 248.566406 94.324219 C 253.058594 89.585938 258.414062 85.921875 264.664062 83.332031 C 270.917969 80.742188 277.769531 79.457031 285.222656 79.457031 C 291.792969 79.457031 297.902344 80.726562 303.59375 83.242188 C 309.28125 85.78125 314.195312 89.214844 318.371094 93.566406 C 322.546875 97.933594 325.734375 103.113281 327.9375 109.101562 C 330.15625 115.109375 331.195312 121.625 331.070312 128.707031 L 330.878906 136.84375 L 249.992188 136.84375 L 245.640625 120.9375 L 311.359375 120.9375 L 308.332031 124.160156 L 308.332031 119.988281 C 307.945312 116.078125 306.691406 112.640625 304.542969 109.664062 C 302.394531 106.707031 299.648438 104.363281 296.300781 102.65625 C 292.953125 100.945312 289.253906 100.101562 285.222656 100.101562 C 279.019531 100.101562 273.824219 101.296875 269.597656 103.695312 C 265.371094 106.089844 262.164062 109.542969 260.035156 114.015625 C 257.882812 118.507812 256.808594 124.089844 256.808594 130.785156 C 256.808594 137.476562 258.167969 142.851562 260.878906 147.640625 C 263.589844 152.449219 267.449219 156.132812 272.433594 158.71875 C 277.417969 161.308594 283.265625 162.613281 289.960938 162.613281 C 294.628906 162.613281 298.925781 161.855469 302.835938 160.339844 C 306.746094 158.824219 310.992188 156.113281 315.535156 152.203125 L 327.089844 168.300781 C 323.671875 171.457031 319.796875 174.152344 315.449219 176.351562 C 311.078125 178.570312 306.515625 180.296875 301.707031 181.566406 C 296.898438 182.835938 292.179688 183.46875 287.511719 183.46875 Z M 287.492188 183.433594 "/><path style=" stroke:none;fill-rule:nonzero;fill:#e6e6e6;fill-opacity:1;" d="M 340.335938 181.53125 L 340.335938 81.710938 L 363.058594 81.710938 L 363.445312 102.160156 L 359.09375 104.433594 C 360.363281 99.890625 362.828125 95.75 366.476562 92.03125 C 370.140625 88.316406 374.507812 85.304688 379.546875 83.03125 C 384.582031 80.761719 389.78125 79.613281 395.082031 79.613281 C 402.65625 79.613281 408.996094 81.128906 414.121094 84.160156 C 419.246094 87.1875 423.085938 91.734375 425.675781 97.792969 C 428.265625 103.851562 429.550781 111.425781 429.550781 120.515625 L 429.550781 181.511719 L 406.265625 181.511719 L 406.265625 122.222656 C 406.265625 117.167969 405.578125 112.976562 404.1875 109.628906 C 402.796875 106.28125 400.648438 103.816406 397.742188 102.25 C 394.835938 100.664062 391.292969 99.941406 387.136719 100.066406 C 383.71875 100.066406 380.601562 100.59375 377.765625 101.667969 C 374.929688 102.742188 372.464844 104.257812 370.367188 106.210938 C 368.289062 108.167969 366.632812 110.40625 365.4375 112.941406 C 364.238281 115.476562 363.640625 118.242188 363.640625 121.273438 L 363.640625 181.511719 L 340.335938 181.511719 Z M 340.335938 181.53125 "/><path style=" stroke:none;fill-rule:nonzero;fill:#e6e6e6;fill-opacity:1;" d="M 435.433594 103.304688 L 435.433594 81.710938 L 500.21875 81.710938 L 500.21875 103.304688 Z M 455.128906 181.53125 L 455.128906 56.328125 L 478.433594 56.328125 L 478.433594 181.53125 Z M 455.128906 181.53125 "/><path style=" stroke:none;fill-rule:nonzero;fill:#cc2127;fill-opacity:1;" d="M 946.371094 164.972656 C 948.75 166.683594 951.9375 166.71875 954.367188 165.078125 L 973.953125 151.851562 C 974.941406 151.109375 975.925781 150.425781 976.914062 149.773438 C 977.371094 149.472656 977.8125 149.171875 978.269531 148.855469 C 978.09375 149.421875 977.917969 149.964844 977.757812 150.511719 C 977.390625 151.691406 977.070312 152.820312 976.789062 153.875 L 970.625 176.6875 C 969.851562 179.523438 970.941406 182.535156 973.320312 184.226562 L 982.390625 190.707031 L 996.484375 134.570312 L 986.179688 127.207031 L 937.511719 158.648438 Z M 946.371094 164.972656 "/><path style=" stroke:none;fill-rule:nonzero;fill:#cc2127;fill-opacity:1;" d="M 956.003906 76.269531 C 955.125 79.050781 956.074219 82.097656 958.382812 83.914062 L 977.019531 98.460938 C 978.023438 99.167969 978.992188 99.90625 979.90625 100.628906 C 980.332031 100.964844 980.769531 101.296875 981.195312 101.632812 C 980.613281 101.632812 980.03125 101.632812 979.46875 101.648438 C 978.21875 101.667969 977.054688 101.703125 975.960938 101.773438 L 952.378906 102.953125 C 949.453125 103.09375 946.917969 105.050781 946.035156 107.851562 L 942.671875 118.488281 L 1000.410156 114.542969 L 1004.234375 102.460938 L 959.28125 65.894531 Z M 956.003906 76.269531 "/><path style=" stroke:none;fill-rule:nonzero;fill:#cc2127;fill-opacity:1;" d="M 1043.371094 58.019531 C 1040.449219 58.039062 1037.824219 59.886719 1036.835938 62.652344 L 1028.769531 84.863281 C 1028.398438 86.042969 1028.011719 87.171875 1027.589844 88.28125 C 1027.394531 88.792969 1027.21875 89.304688 1027.042969 89.8125 C 1026.851562 89.25 1026.671875 88.722656 1026.496094 88.175781 C 1026.09375 86.996094 1025.6875 85.902344 1025.300781 84.882812 L 1016.878906 62.8125 C 1015.839844 60.0625 1013.199219 58.265625 1010.273438 58.300781 L 999.125 58.390625 L 1020.71875 112.078125 L 1033.382812 111.972656 L 1054.273438 57.933594 L 1043.40625 58.019531 Z M 1043.371094 58.019531 "/><g clip-rule="nonzero" clip-path="url(#1fd08842bc)"><path style=" stroke:none;fill-rule:nonzero;fill:#cc2127;fill-opacity:1;" d="M 1087.707031 135.453125 C 1086.773438 132.667969 1084.21875 130.765625 1081.296875 130.660156 L 1057.675781 129.851562 C 1056.441406 129.851562 1055.242188 129.851562 1054.0625 129.796875 C 1053.519531 129.78125 1052.972656 129.761719 1052.425781 129.746094 C 1052.902344 129.394531 1053.359375 129.058594 1053.816406 128.707031 C 1054.804688 127.964844 1055.738281 127.242188 1056.582031 126.539062 L 1074.972656 111.707031 C 1077.261719 109.875 1078.160156 106.8125 1077.226562 104.027344 L 1073.6875 93.441406 L 1029.296875 130.574219 L 1033.3125 142.585938 L 1091.160156 145.757812 L 1087.707031 135.433594 Z M 1087.707031 135.453125 "/></g><g clip-rule="nonzero" clip-path="url(#5d8bbbeb80)"><path style=" stroke:none;fill-rule:nonzero;fill:#cc2127;fill-opacity:1;" d="M 1027.75 201.558594 C 1030.109375 199.8125 1031.128906 196.785156 1030.320312 193.964844 L 1023.800781 171.261719 C 1023.414062 170.097656 1023.0625 168.9375 1022.746094 167.808594 C 1022.605469 167.28125 1022.445312 166.753906 1022.289062 166.242188 C 1022.761719 166.578125 1023.238281 166.910156 1023.695312 167.246094 C 1024.71875 167.96875 1025.6875 168.621094 1026.601562 169.199219 L 1046.382812 182.113281 C 1048.832031 183.714844 1052.039062 183.625 1054.378906 181.882812 L 1063.347656 175.261719 L 1014.308594 144.503906 L 1004.109375 152.027344 L 1018.976562 208.023438 L 1027.730469 201.558594 Z M 1027.75 201.558594 "/></g><path style=" stroke:none;fill-rule:nonzero;fill:#e6e6e6;fill-opacity:1;" d="M 511.652344 183.433594 L 511.652344 47.1875 L 569.65625 47.1875 C 578.605469 47.1875 586.160156 48.492188 592.324219 51.078125 C 598.488281 53.667969 603.15625 57.527344 606.347656 62.652344 C 609.515625 67.777344 611.121094 73.976562 611.121094 81.234375 C 611.121094 88.492188 609.113281 95.117188 605.078125 100.3125 C 601.0625 105.507812 595.40625 109.066406 588.152344 111.019531 L 587.957031 107.128906 C 594.050781 108.433594 599.371094 110.738281 603.914062 114.03125 C 608.460938 117.34375 612 121.429688 614.519531 126.292969 C 617.054688 131.152344 618.304688 136.703125 618.304688 142.9375 C 618.304688 149.5625 617.230469 155.390625 615.101562 160.445312 C 612.953125 165.5 609.816406 169.730469 605.660156 173.09375 C 601.503906 176.476562 596.570312 179.03125 590.863281 180.773438 C 585.15625 182.515625 578.726562 183.398438 571.59375 183.398438 L 511.652344 183.398438 Z M 536.363281 103.042969 L 567.3125 103.042969 C 571.082031 103.042969 574.339844 102.335938 577.140625 100.894531 C 579.941406 99.464844 582.109375 97.527344 583.660156 95.0625 C 585.210938 92.597656 586 89.742188 586 86.503906 C 586 81.304688 584.257812 77.253906 580.753906 74.332031 C 577.246094 71.40625 572.121094 69.945312 565.375 69.945312 L 536.363281 69.945312 Z M 536.363281 160.65625 L 570.429688 160.65625 C 575.222656 160.65625 579.289062 159.953125 582.585938 158.507812 C 585.894531 157.082031 588.433594 154.96875 590.175781 152.183594 C 591.921875 149.402344 592.800781 146.054688 592.800781 142.164062 C 592.800781 138.535156 591.867188 135.417969 589.980469 132.808594 C 588.097656 130.21875 585.402344 128.230469 581.898438 126.875 C 578.390625 125.515625 574.234375 124.832031 569.445312 124.832031 L 536.347656 124.832031 L 536.347656 160.640625 Z M 536.363281 160.65625 "/><g style="fill:#e6e6e6;fill-opacity:1;"><g transform="translate(408.1862, 280.12474)"><path style="stroke:none" d="M 7.8125 0 L 7.8125 -60.078125 L 33.296875 -60.078125 C 36.898438 -60.078125 40.132812 -59.234375 43 -57.546875 C 45.863281 -55.859375 48.140625 -53.554688 49.828125 -50.640625 C 51.515625 -47.722656 52.359375 -44.429688 52.359375 -40.765625 C 52.359375 -37.046875 51.515625 -33.695312 49.828125 -30.71875 C 48.140625 -27.75 45.863281 -25.390625 43 -23.640625 C 40.132812 -21.898438 36.898438 -21.03125 33.296875 -21.03125 L 20.6875 -21.03125 L 20.6875 0 Z M 20.515625 -32.609375 L 31.84375 -32.609375 C 33.21875 -32.609375 34.445312 -32.96875 35.53125 -33.6875 C 36.613281 -34.40625 37.484375 -35.363281 38.140625 -36.5625 C 38.804688 -37.757812 39.140625 -39.132812 39.140625 -40.6875 C 39.140625 -42.226562 38.804688 -43.570312 38.140625 -44.71875 C 37.484375 -45.863281 36.613281 -46.78125 35.53125 -47.46875 C 34.445312 -48.15625 33.21875 -48.5 31.84375 -48.5 L 20.515625 -48.5 Z M 20.515625 -32.609375 "/></g></g><g style="fill:#e6e6e6;fill-opacity:1;"><g transform="translate(468.521971, 280.12474)"><path style="stroke:none" d="M 7.8125 0 L 7.8125 -60.078125 L 20.6875 -60.078125 L 20.6875 -11.59375 L 47.890625 -11.59375 L 47.890625 0 Z M 7.8125 0 "/></g></g><g style="fill:#e6e6e6;fill-opacity:1;"><g transform="translate(524.823941, 280.12474)"><path style="stroke:none" d="M 0.59375 0 L 24.203125 -60.078125 L 35.703125 -60.078125 L 59.140625 0 L 45.921875 0 L 33.8125 -32.359375 C 33.46875 -33.273438 33.050781 -34.445312 32.5625 -35.875 C 32.082031 -37.300781 31.582031 -38.816406 31.0625 -40.421875 C 30.550781 -42.023438 30.066406 -43.554688 29.609375 -45.015625 C 29.148438 -46.472656 28.804688 -47.691406 28.578125 -48.671875 L 30.890625 -48.671875 C 30.554688 -47.410156 30.171875 -46.078125 29.734375 -44.671875 C 29.304688 -43.273438 28.863281 -41.84375 28.40625 -40.375 C 27.945312 -38.914062 27.457031 -37.5 26.9375 -36.125 C 26.425781 -34.757812 25.941406 -33.414062 25.484375 -32.09375 L 13.390625 0 Z M 11.59375 -12.609375 L 15.796875 -22.921875 L 43.34375 -22.921875 L 47.640625 -12.609375 Z M 11.59375 -12.609375 "/></g></g><g style="fill:#e6e6e6;fill-opacity:1;"><g transform="translate(584.558784, 280.12474)"><path style="stroke:none" d="M 20.34375 0 L 20.34375 -48.5 L 2.828125 -48.5 L 2.828125 -60.078125 L 51.234375 -60.078125 L 51.234375 -48.5 L 33.21875 -48.5 L 33.21875 0 Z M 20.34375 0 "/></g></g><g style="fill:#e6e6e6;fill-opacity:1;"><g transform="translate(642.92058, 280.12474)"><path style="stroke:none" d="M 7.8125 0 L 7.8125 -60.078125 L 20.6875 -60.078125 L 20.6875 0 Z M 13.734375 -23.859375 L 13.734375 -34.9375 L 44.796875 -34.9375 L 44.796875 -23.859375 Z M 13.734375 -48.5 L 13.734375 -60.078125 L 48.40625 -60.078125 L 48.40625 -48.5 Z M 13.734375 -48.5 "/></g></g><g style="fill:#e6e6e6;fill-opacity:1;"><g transform="translate(699.050871, 280.12474)"><path style="stroke:none" d="M 34.5 0.859375 C 30.039062 0.859375 25.953125 0.0859375 22.234375 -1.453125 C 18.515625 -3.003906 15.265625 -5.164062 12.484375 -7.9375 C 9.710938 -10.71875 7.582031 -14.007812 6.09375 -17.8125 C 4.601562 -21.613281 3.859375 -25.75 3.859375 -30.21875 C 3.859375 -34.726562 4.601562 -38.875 6.09375 -42.65625 C 7.582031 -46.4375 9.710938 -49.710938 12.484375 -52.484375 C 15.265625 -55.253906 18.515625 -57.410156 22.234375 -58.953125 C 25.953125 -60.503906 30.015625 -61.28125 34.421875 -61.28125 C 38.878906 -61.28125 42.953125 -60.503906 46.640625 -58.953125 C 50.335938 -57.410156 53.570312 -55.238281 56.34375 -52.4375 C 59.125 -49.632812 61.253906 -46.34375 62.734375 -42.5625 C 64.222656 -38.789062 64.96875 -34.675781 64.96875 -30.21875 C 64.96875 -25.75 64.222656 -21.625 62.734375 -17.84375 C 61.253906 -14.070312 59.125 -10.785156 56.34375 -7.984375 C 53.570312 -5.179688 50.335938 -3.003906 46.640625 -1.453125 C 42.953125 0.0859375 38.90625 0.859375 34.5 0.859375 Z M 34.421875 -11.328125 C 36.992188 -11.328125 39.335938 -11.796875 41.453125 -12.734375 C 43.566406 -13.679688 45.394531 -15 46.9375 -16.6875 C 48.488281 -18.375 49.707031 -20.363281 50.59375 -22.65625 C 51.476562 -24.945312 51.921875 -27.46875 51.921875 -30.21875 C 51.921875 -32.957031 51.476562 -35.472656 50.59375 -37.765625 C 49.707031 -40.054688 48.488281 -42.046875 46.9375 -43.734375 C 45.394531 -45.421875 43.566406 -46.734375 41.453125 -47.671875 C 39.335938 -48.617188 36.992188 -49.09375 34.421875 -49.09375 C 31.898438 -49.09375 29.582031 -48.617188 27.46875 -47.671875 C 25.351562 -46.734375 23.492188 -45.421875 21.890625 -43.734375 C 20.285156 -42.046875 19.066406 -40.054688 18.234375 -37.765625 C 17.410156 -35.472656 17 -32.957031 17 -30.21875 C 17 -27.46875 17.410156 -24.945312 18.234375 -22.65625 C 19.066406 -20.363281 20.285156 -18.375 21.890625 -16.6875 C 23.492188 -15 25.351562 -13.679688 27.46875 -12.734375 C 29.582031 -11.796875 31.898438 -11.328125 34.421875 -11.328125 Z M 34.421875 -11.328125 "/></g></g><g style="fill:#e6e6e6;fill-opacity:1;"><g transform="translate(772.17464, 280.12474)"><path style="stroke:none" d="M 7.8125 0 L 7.8125 -60.078125 L 34.421875 -60.078125 C 38.140625 -60.078125 41.515625 -59.234375 44.546875 -57.546875 C 47.578125 -55.859375 49.960938 -53.582031 51.703125 -50.71875 C 53.453125 -47.863281 54.328125 -44.601562 54.328125 -40.9375 C 54.328125 -37.332031 53.453125 -34.054688 51.703125 -31.109375 C 49.960938 -28.160156 47.578125 -25.828125 44.546875 -24.109375 C 41.515625 -22.398438 38.140625 -21.546875 34.421875 -21.546875 L 20.25 -21.546875 L 20.25 0 Z M 41.890625 0 L 26.609375 -27.125 L 39.828125 -29.265625 L 56.8125 0.078125 Z M 20.25 -32.015625 L 33.8125 -32.015625 C 35.363281 -32.015625 36.722656 -32.367188 37.890625 -33.078125 C 39.066406 -33.796875 39.96875 -34.796875 40.59375 -36.078125 C 41.226562 -37.367188 41.546875 -38.816406 41.546875 -40.421875 C 41.546875 -42.140625 41.171875 -43.628906 40.421875 -44.890625 C 39.679688 -46.148438 38.59375 -47.132812 37.15625 -47.84375 C 35.726562 -48.5625 34.070312 -48.921875 32.1875 -48.921875 L 20.25 -48.921875 Z M 20.25 -32.015625 "/></g></g><g style="fill:#e6e6e6;fill-opacity:1;"><g transform="translate(836.544187, 280.12474)"><path style="stroke:none" d="M 7.8125 0 L 7.8125 -60.078125 L 19.5625 -60.078125 L 41.453125 -24.46875 L 33.734375 -24.546875 L 55.875 -60.078125 L 67.125 -60.078125 L 67.125 0 L 54.5 0 L 54.5 -20.59375 C 54.5 -25.75 54.625 -30.382812 54.875 -34.5 C 55.132812 -38.625 55.582031 -42.71875 56.21875 -46.78125 L 57.765625 -42.75 L 40.171875 -15.453125 L 34.5 -15.453125 L 17.25 -42.578125 L 18.703125 -46.78125 C 19.335938 -42.945312 19.78125 -39.007812 20.03125 -34.96875 C 20.289062 -30.9375 20.421875 -26.144531 20.421875 -20.59375 L 20.421875 0 Z M 7.8125 0 "/></g></g></g></svg>