<svg xmlns="http://www.w3.org/2000/svg" xmlns:xlink="http://www.w3.org/1999/xlink" width="1600" zoomAndPan="magnify" viewBox="0 0 1200 299.999988" height="400" preserveAspectRatio="xMidYMid meet" version="1.2"><defs><clipPath id="2f4f741986"><path d="M 1011 133 L 1067 133 L 1067 192.75 L 1011 192.75 Z M 1011 133 "/></clipPath></defs><g id="2598c90ebf"><rect x="0" width="1200" y="0" height="299.999988" style="fill:#ffffff;fill-opacity:1;stroke:none;"/><rect x="0" width="1200" y="0" height="299.999988" style="fill:#e6e6e6;fill-opacity:1;stroke:none;"/><g style="fill:#0e171f;fill-opacity:1;"><g transform="translate(456.174449, 259.943592)"><path style="stroke:none" d="M 7.28125 0 L 7.28125 -56 L 31.046875 -56 C 34.398438 -56 37.410156 -55.210938 40.078125 -53.640625 C 42.742188 -52.066406 44.863281 -49.921875 46.4375 -47.203125 C 48.007812 -44.484375 48.796875 -41.414062 48.796875 -38 C 48.796875 -34.53125 48.007812 -31.410156 46.4375 -28.640625 C 44.863281 -25.867188 42.742188 -23.664062 40.078125 -22.03125 C 37.410156 -20.40625 34.398438 -19.59375 31.046875 -19.59375 L 19.28125 -19.59375 L 19.28125 0 Z M 19.125 -30.40625 L 29.6875 -30.40625 C 30.957031 -30.40625 32.097656 -30.738281 33.109375 -31.40625 C 34.128906 -32.070312 34.945312 -32.960938 35.5625 -34.078125 C 36.175781 -35.203125 36.484375 -36.484375 36.484375 -37.921875 C 36.484375 -39.359375 36.175781 -40.609375 35.5625 -41.671875 C 34.945312 -42.742188 34.128906 -43.597656 33.109375 -44.234375 C 32.097656 -44.878906 30.957031 -45.203125 29.6875 -45.203125 L 19.125 -45.203125 Z M 19.125 -30.40625 "/></g></g><g style="fill:#0e171f;fill-opacity:1;"><g transform="translate(512.409384, 259.943592)"><path style="stroke:none" d="M 7.28125 0 L 7.28125 -56 L 19.28125 -56 L 19.28125 -10.796875 L 44.640625 -10.796875 L 44.640625 0 Z M 7.28125 0 "/></g></g><g style="fill:#0e171f;fill-opacity:1;"><g transform="translate(564.884684, 259.943592)"><path style="stroke:none" d="M 0.5625 0 L 22.5625 -56 L 33.28125 -56 L 55.125 0 L 42.796875 0 L 31.515625 -30.15625 C 31.203125 -31.007812 30.816406 -32.101562 30.359375 -33.4375 C 29.910156 -34.769531 29.441406 -36.179688 28.953125 -37.671875 C 28.472656 -39.171875 28.019531 -40.597656 27.59375 -41.953125 C 27.164062 -43.316406 26.847656 -44.453125 26.640625 -45.359375 L 28.796875 -45.359375 C 28.472656 -44.179688 28.113281 -42.941406 27.71875 -41.640625 C 27.320312 -40.335938 26.910156 -39.003906 26.484375 -37.640625 C 26.054688 -36.273438 25.601562 -34.953125 25.125 -33.671875 C 24.644531 -32.398438 24.191406 -31.148438 23.765625 -29.921875 L 12.484375 0 Z M 10.796875 -11.765625 L 14.71875 -21.359375 L 40.40625 -21.359375 L 44.40625 -11.765625 Z M 10.796875 -11.765625 "/></g></g><g style="fill:#0e171f;fill-opacity:1;"><g transform="translate(620.559534, 259.943592)"><path style="stroke:none" d="M 18.953125 0 L 18.953125 -45.203125 L 2.640625 -45.203125 L 2.640625 -56 L 47.765625 -56 L 47.765625 -45.203125 L 30.953125 -45.203125 L 30.953125 0 Z M 18.953125 0 "/></g></g><g style="fill:#0e171f;fill-opacity:1;"><g transform="translate(674.954659, 259.943592)"><path style="stroke:none" d="M 7.28125 0 L 7.28125 -56 L 19.28125 -56 L 19.28125 0 Z M 12.796875 -22.234375 L 12.796875 -32.5625 L 41.765625 -32.5625 L 41.765625 -22.234375 Z M 12.796875 -45.203125 L 12.796875 -56 L 45.125 -56 L 45.125 -45.203125 Z M 12.796875 -45.203125 "/></g></g><g style="fill:#0e171f;fill-opacity:1;"><g transform="translate(727.269947, 259.943592)"><path style="stroke:none" d="M 32.15625 0.796875 C 28 0.796875 24.1875 0.078125 20.71875 -1.359375 C 17.25 -2.796875 14.222656 -4.804688 11.640625 -7.390625 C 9.054688 -9.984375 7.066406 -13.050781 5.671875 -16.59375 C 4.285156 -20.144531 3.59375 -24 3.59375 -28.15625 C 3.59375 -32.375 4.285156 -36.242188 5.671875 -39.765625 C 7.066406 -43.285156 9.054688 -46.335938 11.640625 -48.921875 C 14.222656 -51.503906 17.25 -53.515625 20.71875 -54.953125 C 24.1875 -56.398438 27.972656 -57.125 32.078125 -57.125 C 36.234375 -57.125 40.03125 -56.398438 43.46875 -54.953125 C 46.914062 -53.515625 49.929688 -51.488281 52.515625 -48.875 C 55.109375 -46.257812 57.097656 -43.191406 58.484375 -39.671875 C 59.867188 -36.160156 60.5625 -32.320312 60.5625 -28.15625 C 60.5625 -24 59.867188 -20.160156 58.484375 -16.640625 C 57.097656 -13.117188 55.109375 -10.050781 52.515625 -7.4375 C 49.929688 -4.820312 46.914062 -2.796875 43.46875 -1.359375 C 40.03125 0.078125 36.257812 0.796875 32.15625 0.796875 Z M 32.078125 -10.5625 C 34.484375 -10.5625 36.671875 -11 38.640625 -11.875 C 40.609375 -12.757812 42.3125 -13.988281 43.75 -15.5625 C 45.195312 -17.132812 46.332031 -18.984375 47.15625 -21.109375 C 47.988281 -23.242188 48.40625 -25.59375 48.40625 -28.15625 C 48.40625 -30.71875 47.988281 -33.066406 47.15625 -35.203125 C 46.332031 -37.335938 45.195312 -39.191406 43.75 -40.765625 C 42.3125 -42.335938 40.609375 -43.5625 38.640625 -44.4375 C 36.671875 -45.320312 34.484375 -45.765625 32.078125 -45.765625 C 29.734375 -45.765625 27.570312 -45.320312 25.59375 -44.4375 C 23.625 -43.5625 21.890625 -42.335938 20.390625 -40.765625 C 18.898438 -39.191406 17.769531 -37.335938 17 -35.203125 C 16.226562 -33.066406 15.84375 -30.71875 15.84375 -28.15625 C 15.84375 -25.59375 16.226562 -23.242188 17 -21.109375 C 17.769531 -18.984375 18.898438 -17.132812 20.390625 -15.5625 C 21.890625 -13.988281 23.625 -12.757812 25.59375 -11.875 C 27.570312 -11 29.734375 -10.5625 32.078125 -10.5625 Z M 32.078125 -10.5625 "/></g></g><g style="fill:#0e171f;fill-opacity:1;"><g transform="translate(795.42372, 259.943592)"><path style="stroke:none" d="M 7.28125 0 L 7.28125 -56 L 32.078125 -56 C 35.546875 -56 38.691406 -55.210938 41.515625 -53.640625 C 44.347656 -52.066406 46.578125 -49.945312 48.203125 -47.28125 C 49.828125 -44.613281 50.640625 -41.570312 50.640625 -38.15625 C 50.640625 -34.800781 49.828125 -31.75 48.203125 -29 C 46.578125 -26.25 44.347656 -24.070312 41.515625 -22.46875 C 38.691406 -20.875 35.546875 -20.078125 32.078125 -20.078125 L 18.875 -20.078125 L 18.875 0 Z M 39.046875 0 L 24.796875 -25.28125 L 37.125 -27.28125 L 52.953125 0.078125 Z M 18.875 -29.84375 L 31.515625 -29.84375 C 32.960938 -29.84375 34.226562 -30.175781 35.3125 -30.84375 C 36.40625 -31.507812 37.242188 -32.441406 37.828125 -33.640625 C 38.421875 -34.835938 38.71875 -36.1875 38.71875 -37.6875 C 38.71875 -39.28125 38.367188 -40.660156 37.671875 -41.828125 C 36.984375 -43.003906 35.972656 -43.925781 34.640625 -44.59375 C 33.304688 -45.257812 31.757812 -45.59375 30 -45.59375 L 18.875 -45.59375 Z M 18.875 -29.84375 "/></g></g><g style="fill:#0e171f;fill-opacity:1;"><g transform="translate(855.418267, 259.943592)"><path style="stroke:none" d="M 7.28125 0 L 7.28125 -56 L 18.234375 -56 L 38.640625 -22.796875 L 31.4375 -22.875 L 52.078125 -56 L 62.5625 -56 L 62.5625 0 L 50.796875 0 L 50.796875 -19.203125 C 50.796875 -24.003906 50.914062 -28.320312 51.15625 -32.15625 C 51.394531 -36 51.8125 -39.8125 52.40625 -43.59375 L 53.84375 -39.84375 L 37.4375 -14.40625 L 32.15625 -14.40625 L 16.078125 -39.6875 L 17.4375 -43.59375 C 18.019531 -40.019531 18.429688 -36.351562 18.671875 -32.59375 C 18.921875 -28.832031 19.046875 -24.367188 19.046875 -19.203125 L 19.046875 0 Z M 7.28125 0 "/></g></g><path style=" stroke:none;fill-rule:nonzero;fill:#0e171f;fill-opacity:1;" d="M 700.496094 169.8125 C 693.074219 169.8125 686.328125 167.757812 680.289062 163.636719 C 674.230469 159.535156 669.386719 153.9375 665.726562 146.84375 C 662.066406 139.769531 660.246094 131.710938 660.246094 122.699219 C 660.246094 113.6875 662.066406 105.625 665.726562 98.550781 C 669.386719 91.476562 674.34375 85.945312 680.632812 81.9375 C 686.917969 77.949219 693.996094 75.945312 701.875 75.945312 C 706.4375 75.945312 710.609375 76.605469 714.382812 77.917969 C 718.160156 79.230469 721.457031 81.085938 724.3125 83.480469 C 727.171875 85.878906 729.535156 88.621094 731.421875 91.707031 C 733.308594 94.792969 734.589844 98.109375 735.28125 101.636719 L 730.652344 100.4375 L 730.652344 77.835938 L 751.890625 77.835938 L 751.890625 168.105469 L 730.488281 168.105469 L 730.488281 146.515625 L 735.460938 145.664062 C 734.65625 148.75 733.210938 151.738281 731.09375 154.660156 C 728.976562 157.566406 726.351562 160.140625 723.214844 162.375 C 720.078125 164.605469 716.582031 166.394531 712.773438 167.773438 C 708.949219 169.136719 704.863281 169.828125 700.527344 169.828125 Z M 706.324219 151.128906 C 711.230469 151.128906 715.566406 149.933594 719.339844 147.535156 C 723.117188 145.136719 726.054688 141.789062 728.15625 137.523438 C 730.273438 133.238281 731.324219 128.296875 731.324219 122.699219 C 731.324219 117.101562 730.273438 112.371094 728.15625 108.136719 C 726.039062 103.917969 723.101562 100.601562 719.339844 98.207031 C 715.566406 95.808594 711.230469 94.613281 706.324219 94.613281 C 701.414062 94.613281 697.097656 95.808594 693.386719 98.207031 C 689.675781 100.601562 686.789062 103.917969 684.738281 108.136719 C 682.683594 112.355469 681.652344 117.214844 681.652344 122.699219 C 681.652344 128.179688 682.683594 133.238281 684.738281 137.523438 C 686.789062 141.804688 689.679688 145.136719 693.386719 147.535156 C 697.097656 149.933594 701.414062 151.128906 706.324219 151.128906 Z M 706.324219 151.128906 "/><path style=" stroke:none;fill-rule:nonzero;fill:#0e171f;fill-opacity:1;" d="M 796.246094 169.8125 C 788.253906 169.8125 781.09375 168.464844 774.742188 165.789062 C 768.40625 163.113281 763.234375 159.253906 759.246094 154.234375 L 772.953125 142.414062 C 776.382812 146.304688 780.210938 149.09375 784.429688 150.800781 C 788.648438 152.507812 793.113281 153.378906 797.789062 153.378906 C 799.726562 153.378906 801.46875 153.148438 803.011719 152.691406 C 804.554688 152.230469 805.898438 151.558594 807.03125 150.636719 C 808.164062 149.71875 809.050781 148.667969 809.691406 147.46875 C 810.316406 146.269531 810.628906 144.925781 810.628906 143.449219 C 810.628906 140.707031 809.59375 138.539062 807.542969 136.945312 C 806.390625 136.144531 804.601562 135.289062 802.140625 134.371094 C 799.679688 133.449219 796.511719 132.546875 792.636719 131.628906 C 786.464844 130.019531 781.324219 128.179688 777.222656 126.0625 C 773.117188 123.945312 769.917969 121.582031 767.636719 118.957031 C 765.699219 116.789062 764.238281 114.328125 763.269531 111.585938 C 762.300781 108.84375 761.808594 105.871094 761.808594 102.671875 C 761.808594 98.683594 762.695312 95.054688 764.464844 91.804688 C 766.238281 88.554688 768.667969 85.730469 771.738281 83.316406 C 774.824219 80.921875 778.417969 79.097656 782.523438 77.835938 C 786.628906 76.585938 790.910156 75.945312 795.378906 75.945312 C 799.84375 75.945312 804.371094 76.523438 808.65625 77.652344 C 812.941406 78.804688 816.929688 80.429688 820.640625 82.53125 C 824.351562 84.648438 827.519531 87.191406 830.144531 90.144531 L 818.507812 103 C 816.339844 100.949219 813.960938 99.125 811.398438 97.515625 C 808.820312 95.925781 806.226562 94.644531 803.601562 93.660156 C 800.976562 92.691406 798.511719 92.199219 796.230469 92.199219 C 793.949219 92.199219 792.109375 92.394531 790.402344 92.804688 C 788.695312 93.199219 787.269531 93.808594 786.117188 94.59375 C 784.96875 95.398438 784.101562 96.402344 783.460938 97.597656 C 782.835938 98.796875 782.523438 100.191406 782.523438 101.800781 C 782.640625 103.164062 783.015625 104.460938 783.640625 105.660156 C 784.265625 106.855469 785.148438 107.859375 786.300781 108.648438 C 787.546875 109.449219 789.433594 110.355469 791.945312 111.386719 C 794.457031 112.421875 797.707031 113.390625 801.714844 114.292969 C 807.3125 115.769531 811.988281 117.429688 815.765625 119.265625 C 819.539062 121.089844 822.496094 123.207031 824.679688 125.605469 C 826.84375 127.65625 828.390625 130.050781 829.308594 132.792969 C 830.226562 135.535156 830.671875 138.554688 830.671875 141.871094 C 830.671875 147.238281 829.160156 152.03125 826.125 156.25 C 823.101562 160.46875 818.984375 163.785156 813.796875 166.183594 C 808.589844 168.578125 802.746094 169.777344 796.246094 169.777344 Z M 796.246094 169.8125 "/><path style=" stroke:none;fill-rule:nonzero;fill:#0e171f;fill-opacity:1;" d="M 884.742188 169.8125 C 875.269531 169.8125 866.898438 167.808594 859.644531 163.820312 C 852.386719 159.832031 846.742188 154.363281 842.6875 147.453125 C 838.632812 140.542969 836.613281 132.644531 836.613281 123.734375 C 836.613281 116.65625 837.746094 110.207031 840.042969 104.378906 C 842.324219 98.550781 845.492188 93.511719 849.546875 89.226562 C 853.601562 84.941406 858.460938 81.625 864.109375 79.296875 C 869.753906 76.964844 875.960938 75.78125 882.691406 75.78125 C 888.632812 75.78125 894.164062 76.933594 899.304688 79.214844 C 904.441406 81.496094 908.890625 84.613281 912.664062 88.554688 C 916.441406 92.492188 919.3125 97.171875 921.316406 102.605469 C 923.320312 108.023438 924.253906 113.933594 924.140625 120.335938 L 923.976562 127.707031 L 850.84375 127.707031 L 846.90625 113.324219 L 906.347656 113.324219 L 903.605469 116.230469 L 903.605469 112.453125 C 903.261719 108.910156 902.128906 105.808594 900.171875 103.113281 C 898.238281 100.4375 895.742188 98.320312 892.722656 96.777344 C 889.699219 95.234375 886.351562 94.464844 882.707031 94.464844 C 877.109375 94.464844 872.398438 95.546875 868.574219 97.714844 C 864.75 99.878906 861.859375 103 859.921875 107.054688 C 857.984375 111.109375 857.015625 116.164062 857.015625 122.207031 C 857.015625 128.246094 858.25 133.121094 860.695312 137.457031 C 863.140625 141.789062 866.636719 145.136719 871.132812 147.46875 C 875.648438 149.816406 880.917969 150.980469 886.976562 150.980469 C 891.195312 150.980469 895.085938 150.292969 898.613281 148.929688 C 902.160156 147.566406 905.984375 145.105469 910.089844 141.558594 L 920.527344 156.121094 C 917.441406 158.976562 913.929688 161.40625 909.988281 163.390625 C 906.050781 165.394531 901.914062 166.972656 897.5625 168.105469 C 893.230469 169.234375 888.945312 169.8125 884.710938 169.8125 Z M 884.742188 169.8125 "/><path style=" stroke:none;fill-rule:nonzero;fill:#0e171f;fill-opacity:1;" d="M 168.042969 169.8125 C 159.097656 169.8125 150.921875 168.285156 143.5 165.214844 C 136.082031 162.160156 129.664062 157.777344 124.261719 152.066406 C 118.84375 146.351562 114.640625 139.589844 111.636719 131.757812 C 108.632812 123.929688 107.140625 115.378906 107.140625 106.070312 C 107.140625 96.761719 108.734375 88.832031 111.902344 81.183594 C 115.085938 73.535156 119.5 66.820312 125.148438 61.058594 C 130.796875 55.296875 137.394531 50.816406 144.914062 47.648438 C 152.449219 44.460938 160.621094 42.871094 169.453125 42.871094 C 175.460938 42.871094 181.273438 43.757812 186.921875 45.511719 C 192.566406 47.285156 197.753906 49.730469 202.449219 52.832031 C 207.160156 55.953125 211.101562 59.582031 214.285156 63.683594 L 199.625 79.753906 C 196.554688 76.570312 193.421875 73.894531 190.1875 71.726562 C 186.953125 69.546875 183.585938 67.902344 180.125 66.789062 C 176.644531 65.671875 173.097656 65.113281 169.453125 65.113281 C 164.035156 65.113281 158.949219 66.113281 154.1875 68.117188 C 149.410156 70.121094 145.289062 72.941406 141.828125 76.585938 C 138.347656 80.230469 135.605469 84.566406 133.617188 89.554688 C 131.617188 94.5625 130.613281 100.109375 130.613281 106.234375 C 130.613281 112.355469 131.582031 118.117188 133.535156 123.175781 C 135.472656 128.230469 138.246094 132.597656 141.84375 136.242188 C 145.4375 139.886719 149.722656 142.675781 154.730469 144.628906 C 159.734375 146.566406 165.234375 147.550781 171.242188 147.550781 C 175.132812 147.550781 178.894531 147.027344 182.535156 145.960938 C 186.179688 144.890625 189.5625 143.398438 192.683594 141.460938 C 195.800781 139.523438 198.65625 137.257812 201.25 134.664062 L 212.542969 152.855469 C 209.722656 156.039062 205.945312 158.910156 201.25 161.503906 C 196.539062 164.097656 191.269531 166.117188 185.460938 167.59375 C 179.632812 169.070312 173.835938 169.8125 168.074219 169.8125 Z M 168.042969 169.8125 "/><path style=" stroke:none;fill-rule:nonzero;fill:#0e171f;fill-opacity:1;" d="M 222.050781 37.417969 L 243.929688 37.417969 L 243.929688 168.054688 L 222.050781 168.054688 Z M 222.050781 37.417969 "/><path style=" stroke:none;fill-rule:nonzero;fill:#0e171f;fill-opacity:1;" d="M 272 55.246094 C 267.652344 55.246094 264.269531 54.164062 261.855469 51.980469 C 259.445312 49.796875 258.230469 46.710938 258.230469 42.707031 C 258.230469 38.945312 259.460938 35.875 261.9375 33.53125 C 264.417969 31.183594 267.765625 30 272 30 C 276.484375 30 279.914062 31.082031 282.328125 33.265625 C 284.738281 35.449219 285.953125 38.585938 285.953125 42.707031 C 285.953125 46.351562 284.722656 49.355469 282.246094 51.71875 C 279.765625 54.082031 276.351562 55.246094 272 55.246094 Z M 261.414062 168.039062 L 261.414062 75.011719 L 283.132812 75.011719 L 283.132812 168.039062 Z M 261.414062 168.039062 "/><path style=" stroke:none;fill-rule:nonzero;fill:#0e171f;fill-opacity:1;" d="M 343.671875 169.8125 C 333.90625 169.8125 325.285156 167.757812 317.816406 163.636719 C 310.332031 159.519531 304.519531 153.902344 300.335938 146.78125 C 296.148438 139.65625 294.0625 131.511719 294.0625 122.335938 C 294.0625 115.046875 295.246094 108.402344 297.59375 102.390625 C 299.941406 96.382812 303.207031 91.179688 307.394531 86.765625 C 311.578125 82.347656 316.570312 78.933594 322.398438 76.523438 C 328.226562 74.109375 334.609375 72.910156 341.554688 72.910156 C 347.675781 72.910156 353.375 74.09375 358.675781 76.441406 C 363.976562 78.804688 368.558594 82.003906 372.449219 86.058594 C 376.339844 90.128906 379.308594 94.957031 381.363281 100.539062 C 383.429688 106.136719 384.398438 112.207031 384.285156 118.808594 L 384.101562 126.390625 L 308.722656 126.390625 L 304.667969 111.570312 L 365.914062 111.570312 L 363.089844 114.574219 L 363.089844 110.683594 C 362.730469 107.039062 361.566406 103.835938 359.5625 101.0625 C 357.558594 98.304688 355 96.121094 351.878906 94.53125 C 348.761719 92.9375 345.3125 92.148438 341.554688 92.148438 C 335.777344 92.148438 330.933594 93.265625 326.992188 95.496094 C 323.054688 97.730469 320.066406 100.949219 318.078125 105.117188 C 316.078125 109.304688 315.074219 114.507812 315.074219 120.746094 C 315.074219 126.984375 316.339844 131.988281 318.867188 136.453125 C 321.394531 140.9375 324.992188 144.367188 329.636719 146.78125 C 334.28125 149.191406 339.730469 150.40625 345.96875 150.40625 C 350.320312 150.40625 354.324219 149.703125 357.96875 148.289062 C 361.613281 146.878906 365.570312 144.351562 369.804688 140.707031 L 380.574219 155.710938 C 377.390625 158.648438 373.777344 161.160156 369.722656 163.210938 C 365.652344 165.28125 361.402344 166.890625 356.917969 168.070312 C 352.4375 169.253906 348.039062 169.84375 343.6875 169.84375 Z M 343.671875 169.8125 "/><path style=" stroke:none;fill-rule:nonzero;fill:#0e171f;fill-opacity:1;" d="M 392.917969 168.039062 L 392.917969 75.011719 L 414.09375 75.011719 L 414.457031 94.070312 L 410.402344 96.1875 C 411.582031 91.953125 413.878906 88.09375 417.277344 84.628906 C 420.691406 81.167969 424.765625 78.359375 429.460938 76.242188 C 434.152344 74.125 438.996094 73.058594 443.9375 73.058594 C 450.996094 73.058594 456.90625 74.46875 461.683594 77.292969 C 466.460938 80.117188 470.039062 84.351562 472.453125 90 C 474.863281 95.644531 476.0625 102.703125 476.0625 111.175781 L 476.0625 168.023438 L 454.363281 168.023438 L 454.363281 112.765625 C 454.363281 108.054688 453.722656 104.148438 452.425781 101.03125 C 451.128906 97.910156 449.125 95.613281 446.417969 94.152344 C 443.707031 92.675781 440.40625 92 436.535156 92.117188 C 433.347656 92.117188 430.445312 92.609375 427.800781 93.609375 C 425.15625 94.613281 422.859375 96.023438 420.90625 97.84375 C 418.96875 99.667969 417.425781 101.753906 416.308594 104.117188 C 415.195312 106.480469 414.636719 109.058594 414.636719 111.878906 L 414.636719 168.023438 L 392.917969 168.023438 Z M 392.917969 168.039062 "/><path style=" stroke:none;fill-rule:nonzero;fill:#0e171f;fill-opacity:1;" d="M 481.546875 95.136719 L 481.546875 75.011719 L 541.921875 75.011719 L 541.921875 95.136719 Z M 499.898438 168.039062 L 499.898438 51.355469 L 521.617188 51.355469 L 521.617188 168.039062 Z M 499.898438 168.039062 "/><path style=" stroke:none;fill-rule:nonzero;fill:#cc2127;fill-opacity:1;" d="M 957.710938 152.605469 C 959.925781 154.199219 962.898438 154.234375 965.164062 152.707031 L 983.417969 140.378906 C 984.335938 139.6875 985.253906 139.046875 986.175781 138.441406 C 986.601562 138.160156 987.011719 137.882812 987.4375 137.585938 C 987.273438 138.113281 987.109375 138.621094 986.960938 139.128906 C 986.617188 140.230469 986.324219 141.28125 986.058594 142.265625 L 980.3125 163.523438 C 979.59375 166.167969 980.609375 168.972656 982.824219 170.550781 L 991.28125 176.589844 L 1004.414062 124.273438 L 994.808594 117.414062 L 949.453125 146.714844 Z M 957.710938 152.605469 "/><path style=" stroke:none;fill-rule:nonzero;fill:#cc2127;fill-opacity:1;" d="M 966.6875 69.9375 C 965.867188 72.53125 966.753906 75.371094 968.90625 77.0625 L 986.273438 90.621094 C 987.207031 91.277344 988.113281 91.96875 988.964844 92.640625 C 989.359375 92.953125 989.769531 93.265625 990.164062 93.578125 C 989.621094 93.578125 989.082031 93.578125 988.554688 93.59375 C 987.390625 93.609375 986.304688 93.644531 985.289062 93.707031 L 963.308594 94.808594 C 960.582031 94.941406 958.21875 96.761719 957.398438 99.371094 L 954.261719 109.285156 L 1008.074219 105.609375 L 1011.636719 94.347656 L 969.742188 60.269531 Z M 966.6875 69.9375 "/><path style=" stroke:none;fill-rule:nonzero;fill:#cc2127;fill-opacity:1;" d="M 1048.109375 52.933594 C 1045.386719 52.949219 1042.9375 54.671875 1042.019531 57.25 L 1034.5 77.949219 C 1034.15625 79.050781 1033.796875 80.101562 1033.402344 81.132812 C 1033.222656 81.609375 1033.058594 82.085938 1032.894531 82.5625 C 1032.710938 82.039062 1032.546875 81.542969 1032.382812 81.035156 C 1032.007812 79.9375 1031.628906 78.917969 1031.269531 77.964844 L 1023.421875 57.398438 C 1022.453125 54.835938 1019.992188 53.164062 1017.265625 53.195312 L 1006.875 53.277344 L 1027 103.3125 L 1038.800781 103.214844 L 1058.269531 52.851562 L 1048.144531 52.933594 Z M 1048.109375 52.933594 "/><path style=" stroke:none;fill-rule:nonzero;fill:#cc2127;fill-opacity:1;" d="M 1089.429688 125.09375 C 1088.558594 122.5 1086.179688 120.726562 1083.453125 120.628906 L 1061.441406 119.875 C 1060.289062 119.875 1059.175781 119.875 1058.074219 119.824219 C 1057.566406 119.808594 1057.058594 119.792969 1056.546875 119.777344 C 1056.992188 119.449219 1057.417969 119.136719 1057.84375 118.808594 C 1058.765625 118.117188 1059.632812 117.445312 1060.421875 116.789062 L 1077.558594 102.96875 C 1079.695312 101.257812 1080.53125 98.402344 1079.660156 95.808594 L 1076.363281 85.945312 L 1034.996094 120.546875 L 1038.738281 131.742188 L 1092.644531 134.699219 L 1089.429688 125.078125 Z M 1089.429688 125.09375 "/><g clip-rule="nonzero" clip-path="url(#2f4f741986)"><path style=" stroke:none;fill-rule:nonzero;fill:#cc2127;fill-opacity:1;" d="M 1033.550781 186.703125 C 1035.75 185.078125 1036.703125 182.253906 1035.945312 179.628906 L 1029.871094 158.46875 C 1029.511719 157.382812 1029.183594 156.300781 1028.886719 155.25 C 1028.757812 154.757812 1028.609375 154.265625 1028.460938 153.789062 C 1028.902344 154.101562 1029.347656 154.414062 1029.773438 154.726562 C 1030.726562 155.398438 1031.628906 156.003906 1032.484375 156.546875 L 1050.917969 168.578125 C 1053.199219 170.074219 1056.1875 169.992188 1058.371094 168.367188 L 1066.726562 162.195312 L 1021.023438 133.53125 L 1011.519531 140.542969 L 1025.375 192.726562 L 1033.535156 186.703125 Z M 1033.550781 186.703125 "/></g><path style=" stroke:none;fill-rule:nonzero;fill:#0e171f;fill-opacity:1;" d="M 552.574219 169.8125 L 552.574219 42.835938 L 606.632812 42.835938 C 614.972656 42.835938 622.011719 44.050781 627.757812 46.464844 C 633.503906 48.878906 637.855469 52.472656 640.824219 57.25 C 643.78125 62.027344 645.273438 67.804688 645.273438 74.566406 C 645.273438 81.332031 643.402344 87.503906 639.644531 92.347656 C 635.902344 97.1875 630.632812 100.503906 623.867188 102.328125 L 623.6875 98.699219 C 629.367188 99.914062 634.324219 102.0625 638.558594 105.132812 C 642.796875 108.21875 646.09375 112.027344 648.441406 116.558594 C 650.804688 121.089844 651.972656 126.261719 651.972656 132.070312 C 651.972656 138.242188 650.96875 143.675781 648.984375 148.386719 C 646.980469 153.101562 644.058594 157.039062 640.183594 160.175781 C 636.3125 163.328125 631.714844 165.707031 626.394531 167.332031 C 621.078125 168.957031 615.085938 169.777344 608.4375 169.777344 L 552.574219 169.777344 Z M 575.605469 94.890625 L 604.449219 94.890625 C 607.960938 94.890625 611 94.234375 613.609375 92.886719 C 616.21875 91.558594 618.238281 89.753906 619.683594 87.453125 C 621.125 85.15625 621.867188 82.496094 621.867188 79.476562 C 621.867188 74.632812 620.238281 70.859375 616.972656 68.132812 C 613.707031 65.410156 608.929688 64.046875 602.644531 64.046875 L 575.605469 64.046875 Z M 575.605469 148.585938 L 607.355469 148.585938 C 611.820312 148.585938 615.609375 147.929688 618.679688 146.582031 C 621.765625 145.253906 624.128906 143.285156 625.753906 140.691406 C 627.378906 138.097656 628.203125 134.976562 628.203125 131.347656 C 628.203125 127.96875 627.332031 125.0625 625.574219 122.632812 C 623.820312 120.21875 621.308594 118.363281 618.039062 117.101562 C 614.773438 115.835938 610.898438 115.195312 606.433594 115.195312 L 575.589844 115.195312 L 575.589844 148.570312 Z M 575.605469 148.585938 "/></g></svg>