<svg xmlns="http://www.w3.org/2000/svg" xmlns:xlink="http://www.w3.org/1999/xlink" width="1500" zoomAndPan="magnify" viewBox="0 0 1125 332.999992" height="444" preserveAspectRatio="xMidYMid meet" version="1.2"><defs><clipPath id="e568808c20"><path d="M 33.300781 47 L 149 47 L 149 184 L 33.300781 184 Z M 33.300781 47 "/></clipPath><clipPath id="6761e38b6d"><path d="M 195 33.300781 L 226 33.300781 L 226 182 L 195 182 Z M 195 33.300781 "/></clipPath><clipPath id="075963d64e"><path d="M 1004 144 L 1064 144 L 1064 208.050781 L 1004 208.050781 Z M 1004 144 "/></clipPath></defs><g id="0a4bd7a719"><g style="fill:#0e171f;fill-opacity:1;"><g transform="translate(408.345181, 280.116442)"><path style="stroke:none" d="M 7.8125 0 L 7.8125 -60.09375 L 33.3125 -60.09375 C 36.914062 -60.09375 40.148438 -59.25 43.015625 -57.5625 C 45.878906 -55.875 48.15625 -53.570312 49.84375 -50.65625 C 51.53125 -47.738281 52.375 -44.445312 52.375 -40.78125 C 52.375 -37.0625 51.53125 -33.710938 49.84375 -30.734375 C 48.15625 -27.753906 45.878906 -25.390625 43.015625 -23.640625 C 40.148438 -21.898438 36.914062 -21.03125 33.3125 -21.03125 L 20.6875 -21.03125 L 20.6875 0 Z M 20.515625 -32.625 L 31.859375 -32.625 C 33.234375 -32.625 34.460938 -32.976562 35.546875 -33.6875 C 36.628906 -34.40625 37.5 -35.363281 38.15625 -36.5625 C 38.820312 -37.769531 39.15625 -39.148438 39.15625 -40.703125 C 39.15625 -42.242188 38.820312 -43.585938 38.15625 -44.734375 C 37.5 -45.878906 36.628906 -46.796875 35.546875 -47.484375 C 34.460938 -48.171875 33.234375 -48.515625 31.859375 -48.515625 L 20.515625 -48.515625 Z M 20.515625 -32.625 "/></g></g><g style="fill:#0e171f;fill-opacity:1;"><g transform="translate(468.706536, 280.116442)"><path style="stroke:none" d="M 7.8125 0 L 7.8125 -60.09375 L 20.6875 -60.09375 L 20.6875 -11.59375 L 47.90625 -11.59375 L 47.90625 0 Z M 7.8125 0 "/></g></g><g style="fill:#0e171f;fill-opacity:1;"><g transform="translate(525.03238, 280.116442)"><path style="stroke:none" d="M 0.59375 0 L 24.21875 -60.09375 L 35.71875 -60.09375 L 59.15625 0 L 45.9375 0 L 33.828125 -32.375 C 33.484375 -33.289062 33.066406 -34.460938 32.578125 -35.890625 C 32.097656 -37.316406 31.597656 -38.832031 31.078125 -40.4375 C 30.566406 -42.039062 30.082031 -43.570312 29.625 -45.03125 C 29.164062 -46.488281 28.820312 -47.707031 28.59375 -48.6875 L 30.90625 -48.6875 C 30.5625 -47.425781 30.175781 -46.09375 29.75 -44.6875 C 29.320312 -43.289062 28.878906 -41.859375 28.421875 -40.390625 C 27.960938 -38.929688 27.472656 -37.515625 26.953125 -36.140625 C 26.441406 -34.773438 25.957031 -33.429688 25.5 -32.109375 L 13.390625 0 Z M 11.59375 -12.625 L 15.796875 -22.921875 L 43.359375 -22.921875 L 47.65625 -12.625 Z M 11.59375 -12.625 "/></g></g><g style="fill:#0e171f;fill-opacity:1;"><g transform="translate(584.792551, 280.116442)"><path style="stroke:none" d="M 20.34375 0 L 20.34375 -48.515625 L 2.828125 -48.515625 L 2.828125 -60.09375 L 51.265625 -60.09375 L 51.265625 -48.515625 L 33.234375 -48.515625 L 33.234375 0 Z M 20.34375 0 "/></g></g><g style="fill:#0e171f;fill-opacity:1;"><g transform="translate(643.179094, 280.116442)"><path style="stroke:none" d="M 7.8125 0 L 7.8125 -60.09375 L 20.6875 -60.09375 L 20.6875 0 Z M 13.734375 -23.875 L 13.734375 -34.9375 L 44.8125 -34.9375 L 44.8125 -23.875 Z M 13.734375 -48.515625 L 13.734375 -60.09375 L 48.421875 -60.09375 L 48.421875 -48.515625 Z M 13.734375 -48.515625 "/></g></g><g style="fill:#0e171f;fill-opacity:1;"><g transform="translate(699.333185, 280.116442)"><path style="stroke:none" d="M 34.515625 0.859375 C 30.046875 0.859375 25.953125 0.0859375 22.234375 -1.453125 C 18.515625 -3.003906 15.265625 -5.164062 12.484375 -7.9375 C 9.710938 -10.71875 7.582031 -14.007812 6.09375 -17.8125 C 4.601562 -21.625 3.859375 -25.757812 3.859375 -30.21875 C 3.859375 -34.738281 4.601562 -38.890625 6.09375 -42.671875 C 7.582031 -46.453125 9.710938 -49.726562 12.484375 -52.5 C 15.265625 -55.28125 18.515625 -57.441406 22.234375 -58.984375 C 25.953125 -60.523438 30.015625 -61.296875 34.421875 -61.296875 C 38.890625 -61.296875 42.96875 -60.523438 46.65625 -58.984375 C 50.351562 -57.441406 53.585938 -55.265625 56.359375 -52.453125 C 59.140625 -49.648438 61.273438 -46.359375 62.765625 -42.578125 C 64.253906 -38.804688 65 -34.6875 65 -30.21875 C 65 -25.757812 64.253906 -21.640625 62.765625 -17.859375 C 61.273438 -14.078125 59.140625 -10.785156 56.359375 -7.984375 C 53.585938 -5.179688 50.351562 -3.003906 46.65625 -1.453125 C 42.96875 0.0859375 38.921875 0.859375 34.515625 0.859375 Z M 34.421875 -11.328125 C 37.003906 -11.328125 39.351562 -11.800781 41.46875 -12.75 C 43.582031 -13.695312 45.410156 -15.015625 46.953125 -16.703125 C 48.503906 -18.390625 49.722656 -20.375 50.609375 -22.65625 C 51.492188 -24.945312 51.9375 -27.46875 51.9375 -30.21875 C 51.9375 -32.96875 51.492188 -35.488281 50.609375 -37.78125 C 49.722656 -40.070312 48.503906 -42.0625 46.953125 -43.75 C 45.410156 -45.4375 43.582031 -46.75 41.46875 -47.6875 C 39.351562 -48.632812 37.003906 -49.109375 34.421875 -49.109375 C 31.910156 -49.109375 29.59375 -48.632812 27.46875 -47.6875 C 25.351562 -46.75 23.492188 -45.4375 21.890625 -43.75 C 20.285156 -42.0625 19.066406 -40.070312 18.234375 -37.78125 C 17.410156 -35.488281 17 -32.96875 17 -30.21875 C 17 -27.46875 17.410156 -24.945312 18.234375 -22.65625 C 19.066406 -20.375 20.285156 -18.390625 21.890625 -16.703125 C 23.492188 -15.015625 25.351562 -13.695312 27.46875 -12.75 C 29.59375 -11.800781 31.910156 -11.328125 34.421875 -11.328125 Z M 34.421875 -11.328125 "/></g></g><g style="fill:#0e171f;fill-opacity:1;"><g transform="translate(772.487961, 280.116442)"><path style="stroke:none" d="M 7.8125 0 L 7.8125 -60.09375 L 34.421875 -60.09375 C 38.148438 -60.09375 41.53125 -59.25 44.5625 -57.5625 C 47.59375 -55.875 49.976562 -53.597656 51.71875 -50.734375 C 53.46875 -47.878906 54.34375 -44.617188 54.34375 -40.953125 C 54.34375 -37.347656 53.46875 -34.070312 51.71875 -31.125 C 49.976562 -28.175781 47.59375 -25.84375 44.5625 -24.125 C 41.53125 -22.40625 38.148438 -21.546875 34.421875 -21.546875 L 20.265625 -21.546875 L 20.265625 0 Z M 41.90625 0 L 26.609375 -27.125 L 39.84375 -29.28125 L 56.84375 0.078125 Z M 20.265625 -32.03125 L 33.828125 -32.03125 C 35.367188 -32.03125 36.726562 -32.382812 37.90625 -33.09375 C 39.082031 -33.8125 39.984375 -34.8125 40.609375 -36.09375 C 41.242188 -37.382812 41.5625 -38.832031 41.5625 -40.4375 C 41.5625 -42.15625 41.1875 -43.644531 40.4375 -44.90625 C 39.695312 -46.164062 38.609375 -47.148438 37.171875 -47.859375 C 35.742188 -48.578125 34.085938 -48.9375 32.203125 -48.9375 L 20.265625 -48.9375 Z M 20.265625 -32.03125 "/></g></g><g style="fill:#0e171f;fill-opacity:1;"><g transform="translate(836.884802, 280.116442)"><path style="stroke:none" d="M 7.8125 0 L 7.8125 -60.09375 L 19.578125 -60.09375 L 41.46875 -24.46875 L 33.75 -24.5625 L 55.890625 -60.09375 L 67.140625 -60.09375 L 67.140625 0 L 54.515625 0 L 54.515625 -20.609375 C 54.515625 -25.753906 54.644531 -30.390625 54.90625 -34.515625 C 55.164062 -38.640625 55.609375 -42.734375 56.234375 -46.796875 L 57.78125 -42.765625 L 40.1875 -15.453125 L 34.515625 -15.453125 L 17.25 -42.59375 L 18.71875 -46.796875 C 19.34375 -42.960938 19.785156 -39.023438 20.046875 -34.984375 C 20.304688 -30.953125 20.4375 -26.160156 20.4375 -20.609375 L 20.4375 0 Z M 7.8125 0 "/></g></g><path style=" stroke:none;fill-rule:nonzero;fill:#0e171f;fill-opacity:1;" d="M 670.730469 183.402344 C 662.765625 183.402344 655.519531 181.199219 649.035156 176.773438 C 642.53125 172.367188 637.332031 166.359375 633.402344 158.746094 C 629.472656 151.148438 627.515625 142.496094 627.515625 132.820312 C 627.515625 123.144531 629.472656 114.492188 633.402344 106.894531 C 637.332031 99.300781 642.65625 93.363281 649.40625 89.0625 C 656.15625 84.777344 663.75 82.628906 672.210938 82.628906 C 677.109375 82.628906 681.585938 83.332031 685.640625 84.742188 C 689.691406 86.152344 693.234375 88.144531 696.300781 90.71875 C 699.367188 93.289062 701.90625 96.234375 703.933594 99.546875 C 705.960938 102.859375 707.335938 106.421875 708.074219 110.210938 L 703.105469 108.921875 L 703.105469 84.65625 L 725.910156 84.65625 L 725.910156 181.566406 L 702.929688 181.566406 L 702.929688 158.390625 L 708.269531 157.476562 C 707.40625 160.789062 705.855469 163.996094 703.582031 167.132812 C 701.308594 170.253906 698.488281 173.019531 695.121094 175.417969 C 691.753906 177.8125 688 179.734375 683.914062 181.214844 C 679.804688 182.679688 675.417969 183.417969 670.765625 183.417969 Z M 676.988281 163.34375 C 682.257812 163.34375 686.910156 162.058594 690.960938 159.484375 C 695.015625 156.914062 698.171875 153.316406 700.425781 148.734375 C 702.699219 144.136719 703.828125 138.832031 703.828125 132.820312 C 703.828125 126.8125 702.699219 121.734375 700.425781 117.1875 C 698.152344 112.660156 694.996094 109.097656 690.960938 106.527344 C 686.910156 103.953125 682.257812 102.667969 676.988281 102.667969 C 671.71875 102.667969 667.082031 103.953125 663.097656 106.527344 C 659.117188 109.097656 656.015625 112.660156 653.8125 117.1875 C 651.609375 121.71875 650.5 126.933594 650.5 132.820312 C 650.5 138.707031 651.609375 144.136719 653.8125 148.734375 C 656.015625 153.335938 659.117188 156.914062 663.097656 159.484375 C 667.082031 162.058594 671.71875 163.34375 676.988281 163.34375 Z M 676.988281 163.34375 "/><path style=" stroke:none;fill-rule:nonzero;fill:#0e171f;fill-opacity:1;" d="M 773.527344 183.402344 C 764.945312 183.402344 757.261719 181.957031 750.441406 179.082031 C 743.640625 176.210938 738.085938 172.070312 733.804688 166.675781 L 748.519531 153.988281 C 752.203125 158.164062 756.3125 161.160156 760.839844 162.992188 C 765.371094 164.824219 770.164062 165.757812 775.1875 165.757812 C 777.265625 165.757812 779.132812 165.511719 780.789062 165.019531 C 782.445312 164.527344 783.890625 163.804688 785.109375 162.816406 C 786.324219 161.828125 787.277344 160.703125 787.960938 159.414062 C 788.632812 158.128906 788.96875 156.683594 788.96875 155.097656 C 788.96875 152.152344 787.855469 149.828125 785.652344 148.117188 C 784.421875 147.253906 782.5 146.339844 779.855469 145.351562 C 777.210938 144.363281 773.8125 143.394531 769.652344 142.40625 C 763.023438 140.679688 757.507812 138.707031 753.101562 136.433594 C 748.695312 134.160156 745.261719 131.621094 742.8125 128.800781 C 740.730469 126.476562 739.164062 123.832031 738.121094 120.890625 C 737.082031 117.945312 736.554688 114.757812 736.554688 111.320312 C 736.554688 107.039062 737.507812 103.140625 739.410156 99.652344 C 741.3125 96.164062 743.921875 93.132812 747.214844 90.542969 C 750.53125 87.96875 754.390625 86.011719 758.796875 84.65625 C 763.203125 83.316406 767.800781 82.628906 772.59375 82.628906 C 777.386719 82.628906 782.253906 83.246094 786.851562 84.460938 C 791.453125 85.695312 795.734375 87.441406 799.71875 89.695312 C 803.699219 91.96875 807.101562 94.699219 809.921875 97.871094 L 797.425781 111.671875 C 795.101562 109.46875 792.542969 107.511719 789.796875 105.785156 C 787.027344 104.078125 784.242188 102.703125 781.425781 101.644531 C 778.605469 100.605469 775.960938 100.074219 773.511719 100.074219 C 771.0625 100.074219 769.085938 100.289062 767.253906 100.726562 C 765.421875 101.152344 763.890625 101.804688 762.65625 102.648438 C 761.421875 103.511719 760.488281 104.585938 759.800781 105.875 C 759.128906 107.160156 758.796875 108.660156 758.796875 110.386719 C 758.917969 111.847656 759.324219 113.242188 759.992188 114.527344 C 760.664062 115.8125 761.617188 116.890625 762.847656 117.734375 C 764.1875 118.597656 766.214844 119.566406 768.910156 120.679688 C 771.609375 121.789062 775.097656 122.828125 779.398438 123.796875 C 785.40625 125.382812 790.429688 127.164062 794.484375 129.136719 C 798.535156 131.09375 801.710938 133.367188 804.054688 135.941406 C 806.378906 138.144531 808.035156 140.714844 809.023438 143.660156 C 810.011719 146.601562 810.484375 149.84375 810.484375 153.40625 C 810.484375 159.167969 808.863281 164.3125 805.605469 168.84375 C 802.359375 173.371094 797.9375 176.933594 792.367188 179.503906 C 786.78125 182.078125 780.507812 183.367188 773.527344 183.367188 Z M 773.527344 183.402344 "/><path style=" stroke:none;fill-rule:nonzero;fill:#0e171f;fill-opacity:1;" d="M 868.539062 183.402344 C 858.371094 183.402344 849.382812 181.25 841.589844 176.96875 C 833.800781 172.683594 827.738281 166.816406 823.386719 159.398438 C 819.035156 151.976562 816.867188 143.5 816.867188 133.929688 C 816.867188 126.335938 818.082031 119.410156 820.546875 113.152344 C 823 106.894531 826.398438 101.484375 830.753906 96.886719 C 835.105469 92.285156 840.324219 88.726562 846.386719 86.222656 C 852.449219 83.722656 859.109375 82.453125 866.335938 82.453125 C 872.714844 82.453125 878.652344 83.6875 884.171875 86.136719 C 889.6875 88.585938 894.460938 91.933594 898.515625 96.164062 C 902.570312 100.394531 905.652344 105.414062 907.804688 111.25 C 909.953125 117.066406 910.957031 123.410156 910.835938 130.28125 L 910.660156 138.195312 L 832.144531 138.195312 L 827.914062 122.757812 L 891.730469 122.757812 L 888.789062 125.878906 L 888.789062 121.824219 C 888.417969 118.015625 887.203125 114.6875 885.105469 111.796875 C 883.023438 108.921875 880.347656 106.648438 877.101562 104.992188 C 873.859375 103.335938 870.265625 102.507812 866.351562 102.507812 C 860.34375 102.507812 855.285156 103.671875 851.179688 105.996094 C 847.074219 108.324219 843.96875 111.671875 841.890625 116.023438 C 839.8125 120.378906 838.773438 125.804688 838.773438 132.292969 C 838.773438 138.777344 840.09375 144.011719 842.71875 148.664062 C 845.34375 153.316406 849.097656 156.914062 853.929688 159.414062 C 858.773438 161.933594 864.433594 163.1875 870.933594 163.1875 C 875.464844 163.1875 879.640625 162.445312 883.429688 160.984375 C 887.238281 159.519531 891.34375 156.875 895.75 153.070312 L 906.957031 168.703125 C 903.644531 171.769531 899.871094 174.378906 895.644531 176.507812 C 891.414062 178.660156 886.972656 180.351562 882.300781 181.566406 C 877.648438 182.785156 873.050781 183.402344 868.503906 183.402344 Z M 868.539062 183.402344 "/><g clip-rule="nonzero" clip-path="url(#e568808c20)"><path style=" stroke:none;fill-rule:nonzero;fill:#0e171f;fill-opacity:1;" d="M 99.089844 183.402344 C 89.484375 183.402344 80.707031 181.761719 72.742188 178.464844 C 64.777344 175.1875 57.886719 170.480469 52.085938 164.347656 C 46.273438 158.214844 41.761719 150.957031 38.535156 142.550781 C 35.308594 134.140625 33.707031 124.960938 33.707031 114.96875 C 33.707031 104.976562 35.414062 96.464844 38.816406 88.25 C 42.234375 80.039062 46.976562 72.828125 53.039062 66.644531 C 59.101562 60.457031 66.1875 55.648438 74.257812 52.246094 C 82.347656 48.828125 91.125 47.117188 100.605469 47.117188 C 107.054688 47.117188 113.292969 48.070312 119.355469 49.953125 C 125.417969 51.859375 130.988281 54.484375 136.027344 57.816406 C 141.085938 61.164062 145.316406 65.058594 148.734375 69.464844 L 132.996094 86.71875 C 129.703125 83.296875 126.335938 80.425781 122.863281 78.097656 C 119.390625 75.753906 115.78125 73.992188 112.0625 72.792969 C 108.324219 71.597656 104.519531 70.996094 100.605469 70.996094 C 94.789062 70.996094 89.328125 72.070312 84.214844 74.222656 C 79.085938 76.371094 74.664062 79.402344 70.945312 83.316406 C 67.207031 87.226562 64.265625 91.882812 62.132812 97.238281 C 59.984375 102.613281 58.90625 108.570312 58.90625 115.144531 C 58.90625 121.71875 59.949219 127.902344 62.046875 133.332031 C 64.125 138.761719 67.101562 143.449219 70.960938 147.359375 C 74.820312 151.273438 79.421875 154.269531 84.796875 156.367188 C 90.171875 158.445312 96.078125 159.503906 102.527344 159.503906 C 106.703125 159.503906 110.738281 158.9375 114.652344 157.792969 C 118.5625 156.648438 122.195312 155.042969 125.542969 152.964844 C 128.890625 150.886719 131.957031 148.453125 134.742188 145.667969 L 146.867188 165.195312 C 143.835938 168.613281 139.78125 171.699219 134.742188 174.484375 C 129.683594 177.265625 124.027344 179.433594 117.789062 181.019531 C 111.53125 182.609375 105.3125 183.402344 99.125 183.402344 Z M 99.089844 183.402344 "/></g><path style=" stroke:none;fill-rule:nonzero;fill:#0e171f;fill-opacity:1;" d="M 157.070312 41.265625 L 180.5625 41.265625 L 180.5625 181.515625 L 157.070312 181.515625 Z M 157.070312 41.265625 "/><g clip-rule="nonzero" clip-path="url(#6761e38b6d)"><path style=" stroke:none;fill-rule:nonzero;fill:#0e171f;fill-opacity:1;" d="M 210.699219 60.40625 C 206.03125 60.40625 202.398438 59.242188 199.808594 56.898438 C 197.21875 54.554688 195.914062 51.242188 195.914062 46.941406 C 195.914062 42.90625 197.234375 39.609375 199.898438 37.089844 C 202.558594 34.570312 206.152344 33.300781 210.699219 33.300781 C 215.511719 33.300781 219.195312 34.464844 221.785156 36.808594 C 224.375 39.152344 225.679688 42.515625 225.679688 46.941406 C 225.679688 50.851562 224.359375 54.078125 221.699219 56.617188 C 219.035156 59.152344 215.371094 60.40625 210.699219 60.40625 Z M 199.332031 181.496094 L 199.332031 81.625 L 222.648438 81.625 L 222.648438 181.496094 Z M 199.332031 181.496094 "/></g><path style=" stroke:none;fill-rule:nonzero;fill:#0e171f;fill-opacity:1;" d="M 287.644531 183.402344 C 277.160156 183.402344 267.90625 181.199219 259.886719 176.773438 C 251.851562 172.351562 245.613281 166.324219 241.117188 158.675781 C 236.625 151.027344 234.386719 142.285156 234.386719 132.433594 C 234.386719 124.609375 235.65625 117.46875 238.175781 111.019531 C 240.695312 104.570312 244.203125 98.984375 248.695312 94.242188 C 253.191406 89.5 258.546875 85.835938 264.804688 83.246094 C 271.0625 80.65625 277.917969 79.367188 285.371094 79.367188 C 291.945312 79.367188 298.0625 80.636719 303.753906 83.15625 C 309.445312 85.695312 314.363281 89.132812 318.539062 93.484375 C 322.714844 97.855469 325.90625 103.035156 328.109375 109.027344 C 330.328125 115.039062 331.371094 121.558594 331.246094 128.644531 L 331.050781 136.785156 L 250.125 136.785156 L 245.773438 120.871094 L 311.523438 120.871094 L 308.492188 124.097656 L 308.492188 119.921875 C 308.105469 116.007812 306.855469 112.570312 304.703125 109.59375 C 302.554688 106.632812 299.804688 104.289062 296.457031 102.578125 C 293.109375 100.867188 289.40625 100.023438 285.371094 100.023438 C 279.167969 100.023438 273.96875 101.222656 269.738281 103.617188 C 265.511719 106.015625 262.300781 109.46875 260.171875 113.945312 C 258.019531 118.441406 256.945312 124.027344 256.945312 130.722656 C 256.945312 137.421875 258.300781 142.796875 261.015625 147.589844 C 263.730469 152.402344 267.589844 156.082031 272.578125 158.675781 C 277.566406 161.265625 283.414062 162.570312 290.113281 162.570312 C 294.78125 162.570312 299.082031 161.8125 302.996094 160.296875 C 306.90625 158.78125 311.15625 156.066406 315.703125 152.152344 L 327.261719 168.261719 C 323.84375 171.417969 319.96875 174.113281 315.613281 176.316406 C 311.242188 178.535156 306.679688 180.261719 301.867188 181.53125 C 297.054688 182.800781 292.332031 183.4375 287.664062 183.4375 Z M 287.644531 183.402344 "/><path style=" stroke:none;fill-rule:nonzero;fill:#0e171f;fill-opacity:1;" d="M 340.515625 181.496094 L 340.515625 81.625 L 363.25 81.625 L 363.636719 102.085938 L 359.285156 104.359375 C 360.554688 99.8125 363.023438 95.671875 366.667969 91.953125 C 370.335938 88.234375 374.707031 85.21875 379.746094 82.945312 C 384.785156 80.671875 389.984375 79.527344 395.289062 79.527344 C 402.867188 79.527344 409.214844 81.042969 414.339844 84.074219 C 419.46875 87.105469 423.3125 91.652344 425.902344 97.714844 C 428.492188 103.777344 429.78125 111.355469 429.78125 120.449219 L 429.78125 181.480469 L 406.480469 181.480469 L 406.480469 122.160156 C 406.480469 117.101562 405.792969 112.90625 404.402344 109.558594 C 403.007812 106.207031 400.859375 103.742188 397.953125 102.171875 C 395.042969 100.585938 391.5 99.863281 387.34375 99.988281 C 383.921875 99.988281 380.804688 100.515625 377.964844 101.589844 C 375.128906 102.667969 372.660156 104.183594 370.5625 106.136719 C 368.484375 108.09375 366.828125 110.332031 365.628906 112.871094 C 364.429688 115.410156 363.832031 118.175781 363.832031 121.207031 L 363.832031 181.480469 L 340.515625 181.480469 Z M 340.515625 181.496094 "/><path style=" stroke:none;fill-rule:nonzero;fill:#0e171f;fill-opacity:1;" d="M 435.667969 103.230469 L 435.667969 81.625 L 500.484375 81.625 L 500.484375 103.230469 Z M 455.371094 181.496094 L 455.371094 56.226562 L 478.683594 56.226562 L 478.683594 181.496094 Z M 455.371094 181.496094 "/><path style=" stroke:none;fill-rule:nonzero;fill:#0e171f;fill-opacity:1;" d="M 946.875 164.929688 C 949.253906 166.640625 952.445312 166.675781 954.875 165.035156 L 974.472656 151.800781 C 975.460938 151.0625 976.449219 150.375 977.433594 149.722656 C 977.894531 149.421875 978.332031 149.121094 978.792969 148.804688 C 978.617188 149.371094 978.4375 149.914062 978.28125 150.460938 C 977.910156 151.644531 977.59375 152.769531 977.3125 153.828125 L 971.144531 176.652344 C 970.367188 179.488281 971.460938 182.5 973.839844 184.195312 L 982.914062 190.679688 L 997.015625 134.511719 L 986.703125 127.144531 L 938.011719 158.605469 Z M 946.875 164.929688 "/><path style=" stroke:none;fill-rule:nonzero;fill:#0e171f;fill-opacity:1;" d="M 956.515625 76.179688 C 955.632812 78.960938 956.585938 82.011719 958.894531 83.828125 L 977.539062 98.382812 C 978.542969 99.089844 979.515625 99.828125 980.429688 100.550781 C 980.851562 100.886719 981.292969 101.222656 981.71875 101.554688 C 981.136719 101.554688 980.554688 101.554688 979.988281 101.574219 C 978.738281 101.589844 977.574219 101.625 976.484375 101.699219 L 952.882812 102.878906 C 949.960938 103.019531 947.421875 104.976562 946.539062 107.777344 L 943.175781 118.421875 L 1000.945312 114.472656 L 1004.769531 102.382812 L 959.792969 65.796875 Z M 956.515625 76.179688 "/><path style=" stroke:none;fill-rule:nonzero;fill:#0e171f;fill-opacity:1;" d="M 1043.929688 57.921875 C 1041.003906 57.9375 1038.375 59.789062 1037.390625 62.554688 L 1029.316406 84.777344 C 1028.949219 85.960938 1028.558594 87.085938 1028.136719 88.199219 C 1027.945312 88.707031 1027.765625 89.21875 1027.589844 89.730469 C 1027.398438 89.167969 1027.222656 88.636719 1027.042969 88.09375 C 1026.640625 86.910156 1026.234375 85.820312 1025.847656 84.796875 L 1017.421875 62.714844 C 1016.382812 59.964844 1013.738281 58.167969 1010.8125 58.203125 L 999.65625 58.289062 L 1021.265625 112.007812 L 1033.9375 111.902344 L 1054.835938 57.832031 L 1043.964844 57.921875 Z M 1043.929688 57.921875 "/><path style=" stroke:none;fill-rule:nonzero;fill:#0e171f;fill-opacity:1;" d="M 1088.289062 135.394531 C 1087.351562 132.609375 1084.796875 130.707031 1081.871094 130.601562 L 1058.238281 129.789062 C 1057.003906 129.789062 1055.808594 129.789062 1054.625 129.738281 C 1054.078125 129.71875 1053.535156 129.703125 1052.988281 129.683594 C 1053.464844 129.332031 1053.921875 128.996094 1054.378906 128.644531 C 1055.367188 127.902344 1056.300781 127.179688 1057.144531 126.476562 L 1075.546875 111.636719 C 1077.835938 109.804688 1078.734375 106.738281 1077.800781 103.953125 L 1074.257812 93.363281 L 1029.847656 130.511719 L 1033.867188 142.53125 L 1091.742188 145.703125 L 1088.289062 135.375 Z M 1088.289062 135.394531 "/><g clip-rule="nonzero" clip-path="url(#075963d64e)"><path style=" stroke:none;fill-rule:nonzero;fill:#0e171f;fill-opacity:1;" d="M 1028.296875 201.535156 C 1030.65625 199.789062 1031.679688 196.757812 1030.871094 193.941406 L 1024.347656 171.222656 C 1023.960938 170.058594 1023.609375 168.894531 1023.292969 167.769531 C 1023.148438 167.238281 1022.992188 166.710938 1022.832031 166.199219 C 1023.308594 166.535156 1023.785156 166.871094 1024.242188 167.203125 C 1025.265625 167.925781 1026.234375 168.578125 1027.152344 169.160156 L 1046.941406 182.078125 C 1049.390625 183.683594 1052.597656 183.59375 1054.941406 181.851562 L 1063.914062 175.222656 L 1014.847656 144.453125 L 1004.644531 151.976562 L 1019.519531 208.003906 L 1028.277344 201.535156 Z M 1028.296875 201.535156 "/></g><path style=" stroke:none;fill-rule:nonzero;fill:#0e171f;fill-opacity:1;" d="M 511.921875 183.402344 L 511.921875 47.082031 L 569.957031 47.082031 C 578.910156 47.082031 586.472656 48.386719 592.640625 50.976562 C 598.808594 53.566406 603.476562 57.425781 606.667969 62.554688 C 609.839844 67.683594 611.445312 73.886719 611.445312 81.148438 C 611.445312 88.410156 609.433594 95.035156 605.398438 100.234375 C 601.382812 105.433594 595.722656 108.992188 588.464844 110.949219 L 588.269531 107.054688 C 594.367188 108.359375 599.6875 110.667969 604.234375 113.964844 C 608.78125 117.277344 612.324219 121.367188 614.847656 126.230469 C 617.382812 131.09375 618.636719 136.644531 618.636719 142.882812 C 618.636719 149.511719 617.558594 155.34375 615.425781 160.402344 C 613.277344 165.460938 610.140625 169.6875 605.980469 173.054688 C 601.820312 176.4375 596.886719 178.996094 591.175781 180.738281 C 585.46875 182.484375 579.035156 183.367188 571.898438 183.367188 L 511.921875 183.367188 Z M 536.648438 102.964844 L 567.613281 102.964844 C 571.386719 102.964844 574.644531 102.261719 577.449219 100.816406 C 580.25 99.386719 582.417969 97.449219 583.96875 94.984375 C 585.519531 92.515625 586.3125 89.660156 586.3125 86.417969 C 586.3125 81.21875 584.566406 77.164062 581.0625 74.238281 C 577.554688 71.3125 572.425781 69.851562 565.675781 69.851562 L 536.648438 69.851562 Z M 536.648438 160.613281 L 570.734375 160.613281 C 575.527344 160.613281 579.597656 159.90625 582.894531 158.464844 C 586.207031 157.035156 588.746094 154.921875 590.488281 152.136719 C 592.234375 149.351562 593.117188 146.003906 593.117188 142.109375 C 593.117188 138.476562 592.183594 135.359375 590.296875 132.75 C 588.410156 130.160156 585.714844 128.167969 582.207031 126.8125 C 578.699219 125.453125 574.539062 124.765625 569.746094 124.765625 L 536.632812 124.765625 L 536.632812 160.59375 Z M 536.648438 160.613281 "/></g></svg>