<svg xmlns="http://www.w3.org/2000/svg" xmlns:xlink="http://www.w3.org/1999/xlink" width="1600" zoomAndPan="magnify" viewBox="0 0 1200 299.999988" height="400" preserveAspectRatio="xMidYMid meet" version="1.2"><defs><clipPath id="b4e61d31ae"><path d="M 205 55.949219 L 238 55.949219 L 238 216 L 205 216 Z M 205 55.949219 "/></clipPath><clipPath id="de78c49e37"><path d="M 1075 175 L 1140 175 L 1140 244.199219 L 1075 244.199219 Z M 1075 175 "/></clipPath></defs><g id="d2f5cd09b6"><path style=" stroke:none;fill-rule:nonzero;fill:#0e171f;fill-opacity:1;" d="M 716.289062 217.558594 C 707.710938 217.558594 699.910156 215.1875 692.929688 210.425781 C 685.925781 205.679688 680.328125 199.210938 676.097656 191.011719 C 671.867188 182.835938 669.761719 173.519531 669.761719 163.101562 C 669.761719 152.683594 671.867188 143.367188 676.097656 135.1875 C 680.328125 127.011719 686.058594 120.617188 693.328125 115.988281 C 700.59375 111.375 708.773438 109.0625 717.882812 109.0625 C 723.15625 109.0625 727.976562 109.820312 732.339844 111.335938 C 736.703125 112.855469 740.519531 115 743.820312 117.769531 C 747.121094 120.539062 749.855469 123.710938 752.035156 127.277344 C 754.21875 130.84375 755.699219 134.675781 756.496094 138.757812 L 751.144531 137.371094 L 751.144531 111.242188 L 775.699219 111.242188 L 775.699219 215.585938 L 750.953125 215.585938 L 750.953125 190.632812 L 756.703125 189.648438 C 755.773438 193.214844 754.105469 196.667969 751.65625 200.046875 C 749.207031 203.402344 746.171875 206.382812 742.546875 208.964844 C 738.925781 211.542969 734.882812 213.613281 730.480469 215.207031 C 726.058594 216.78125 721.335938 217.578125 716.324219 217.578125 Z M 723.023438 195.964844 C 728.695312 195.964844 733.707031 194.582031 738.070312 191.808594 C 742.433594 189.039062 745.832031 185.167969 748.261719 180.234375 C 750.707031 175.28125 751.921875 169.570312 751.921875 163.101562 C 751.921875 156.628906 750.707031 151.164062 748.261719 146.269531 C 745.8125 141.394531 742.414062 137.5625 738.070312 134.789062 C 733.707031 132.019531 728.695312 130.636719 723.023438 130.636719 C 717.351562 130.636719 712.359375 132.019531 708.070312 134.789062 C 703.78125 137.5625 700.445312 141.394531 698.070312 146.269531 C 695.699219 151.148438 694.503906 156.761719 694.503906 163.101562 C 694.503906 169.4375 695.699219 175.28125 698.070312 180.234375 C 700.445312 185.1875 703.78125 189.039062 708.070312 191.808594 C 712.359375 194.582031 717.351562 195.964844 723.023438 195.964844 Z M 723.023438 195.964844 "/><path style=" stroke:none;fill-rule:nonzero;fill:#0e171f;fill-opacity:1;" d="M 826.96875 217.558594 C 817.726562 217.558594 809.453125 216.003906 802.109375 212.910156 C 794.785156 209.816406 788.808594 205.359375 784.199219 199.550781 L 800.042969 185.890625 C 804.007812 190.386719 808.429688 193.613281 813.304688 195.585938 C 818.183594 197.558594 823.34375 198.566406 828.75 198.566406 C 830.992188 198.566406 833 198.300781 834.785156 197.769531 C 836.570312 197.238281 838.125 196.457031 839.433594 195.394531 C 840.742188 194.332031 841.769531 193.121094 842.507812 191.734375 C 843.230469 190.347656 843.589844 188.792969 843.589844 187.085938 C 843.589844 183.917969 842.394531 181.410156 840.023438 179.570312 C 838.695312 178.640625 836.625 177.65625 833.78125 176.59375 C 830.933594 175.53125 827.269531 174.484375 822.792969 173.421875 C 815.660156 171.5625 809.71875 169.4375 804.976562 166.992188 C 800.230469 164.542969 796.53125 161.8125 793.894531 158.773438 C 791.65625 156.269531 789.964844 153.421875 788.847656 150.253906 C 787.726562 147.085938 787.160156 143.652344 787.160156 139.953125 C 787.160156 135.339844 788.183594 131.148438 790.230469 127.390625 C 792.28125 123.632812 795.089844 120.371094 798.636719 117.582031 C 802.207031 114.808594 806.359375 112.703125 811.105469 111.242188 C 815.847656 109.800781 820.800781 109.0625 825.960938 109.0625 C 831.121094 109.0625 836.359375 109.726562 841.3125 111.035156 C 846.265625 112.363281 850.875 114.242188 855.164062 116.667969 C 859.453125 119.117188 863.113281 122.058594 866.152344 125.472656 L 852.699219 140.332031 C 850.191406 137.960938 847.441406 135.851562 844.480469 133.992188 C 841.503906 132.152344 838.503906 130.671875 835.46875 129.535156 C 832.433594 128.414062 829.585938 127.847656 826.949219 127.847656 C 824.3125 127.847656 822.1875 128.074219 820.210938 128.546875 C 818.238281 129.003906 816.589844 129.707031 815.261719 130.617188 C 813.933594 131.546875 812.925781 132.703125 812.1875 134.089844 C 811.464844 135.472656 811.105469 137.085938 811.105469 138.945312 C 811.238281 140.519531 811.675781 142.019531 812.394531 143.40625 C 813.117188 144.789062 814.140625 145.949219 815.46875 146.859375 C 816.910156 147.789062 819.09375 148.832031 821.996094 150.027344 C 824.898438 151.222656 828.65625 152.34375 833.285156 153.386719 C 839.757812 155.09375 845.164062 157.011719 849.527344 159.136719 C 853.894531 161.242188 857.308594 163.6875 859.832031 166.460938 C 862.335938 168.832031 864.121094 171.601562 865.183594 174.769531 C 866.246094 177.9375 866.757812 181.429688 866.757812 185.261719 C 866.757812 191.46875 865.011719 197.007812 861.5 201.886719 C 858.011719 206.761719 853.246094 210.59375 847.25 213.367188 C 841.238281 216.136719 834.480469 217.519531 826.96875 217.519531 Z M 826.96875 217.558594 "/><path style=" stroke:none;fill-rule:nonzero;fill:#0e171f;fill-opacity:1;" d="M 929.261719 217.558594 C 918.3125 217.558594 908.636719 215.242188 900.25 210.632812 C 891.863281 206.023438 885.335938 199.703125 880.648438 191.714844 C 875.960938 183.726562 873.625 174.601562 873.625 164.296875 C 873.625 156.117188 874.9375 148.660156 877.59375 141.925781 C 880.230469 135.1875 883.890625 129.363281 888.578125 124.410156 C 893.265625 119.457031 898.882812 115.625 905.410156 112.929688 C 911.9375 110.238281 919.109375 108.871094 926.890625 108.871094 C 933.757812 108.871094 940.152344 110.199219 946.089844 112.835938 C 952.03125 115.472656 957.171875 119.078125 961.539062 123.632812 C 965.902344 128.1875 969.222656 133.59375 971.535156 139.875 C 973.851562 146.136719 974.933594 152.96875 974.800781 160.367188 L 974.609375 168.886719 L 890.078125 168.886719 L 885.523438 152.265625 L 954.230469 152.265625 L 951.0625 155.625 L 951.0625 151.261719 C 950.664062 147.160156 949.355469 143.574219 947.097656 140.464844 C 944.859375 137.371094 941.972656 134.921875 938.484375 133.140625 C 934.992188 131.355469 931.121094 130.464844 926.90625 130.464844 C 920.4375 130.464844 914.992188 131.714844 910.570312 134.222656 C 906.148438 136.726562 902.808594 140.332031 900.570312 145.019531 C 898.332031 149.703125 897.210938 155.550781 897.210938 162.53125 C 897.210938 169.515625 898.636719 175.148438 901.464844 180.160156 C 904.289062 185.167969 908.332031 189.039062 913.53125 191.734375 C 918.75 194.449219 924.839844 195.792969 931.839844 195.792969 C 936.71875 195.792969 941.214844 194.996094 945.292969 193.421875 C 949.394531 191.847656 953.8125 189 958.558594 184.902344 L 970.625 201.734375 C 967.058594 205.035156 963 207.84375 958.445312 210.140625 C 953.890625 212.453125 949.109375 214.277344 944.082031 215.585938 C 939.070312 216.894531 934.117188 217.558594 929.222656 217.558594 Z M 929.261719 217.558594 "/><path style=" stroke:none;fill-rule:nonzero;fill:#0e171f;fill-opacity:1;" d="M 100.820312 217.558594 C 90.476562 217.558594 81.027344 215.792969 72.453125 212.246094 C 63.875 208.714844 56.457031 203.648438 50.214844 197.046875 C 43.953125 190.445312 39.09375 182.625 35.621094 173.574219 C 32.148438 164.523438 30.421875 154.636719 30.421875 143.878906 C 30.421875 133.121094 32.261719 123.957031 35.925781 115.113281 C 39.605469 106.269531 44.710938 98.511719 51.238281 91.851562 C 57.765625 85.191406 65.394531 80.011719 74.082031 76.347656 C 82.792969 72.667969 92.242188 70.828125 102.449219 70.828125 C 109.394531 70.828125 116.113281 71.851562 122.640625 73.882812 C 129.167969 75.929688 135.164062 78.757812 140.589844 82.34375 C 146.035156 85.949219 150.589844 90.144531 154.269531 94.886719 L 137.328125 113.460938 C 133.777344 109.78125 130.15625 106.6875 126.417969 104.183594 C 122.679688 101.660156 118.789062 99.761719 114.785156 98.472656 C 110.761719 97.183594 106.664062 96.539062 102.449219 96.539062 C 96.1875 96.539062 90.308594 97.695312 84.804688 100.007812 C 79.28125 102.324219 74.519531 105.589844 70.515625 109.800781 C 66.492188 114.011719 63.324219 119.023438 61.027344 124.789062 C 58.714844 130.578125 57.554688 136.992188 57.554688 144.070312 C 57.554688 151.148438 58.675781 157.808594 60.933594 163.652344 C 63.171875 169.496094 66.378906 174.542969 70.535156 178.753906 C 74.691406 182.96875 79.644531 186.191406 85.429688 188.453125 C 91.21875 190.691406 97.574219 191.828125 104.519531 191.828125 C 109.015625 191.828125 113.363281 191.222656 117.574219 189.988281 C 121.785156 188.753906 125.695312 187.027344 129.300781 184.789062 C 132.90625 182.550781 136.207031 179.933594 139.207031 176.933594 L 152.261719 197.957031 C 148.996094 201.640625 144.632812 204.960938 139.207031 207.957031 C 133.757812 210.957031 127.667969 213.289062 120.953125 214.996094 C 114.214844 216.703125 107.515625 217.558594 100.855469 217.558594 Z M 100.820312 217.558594 "/><path style=" stroke:none;fill-rule:nonzero;fill:#0e171f;fill-opacity:1;" d="M 163.246094 64.527344 L 188.539062 64.527344 L 188.539062 215.527344 L 163.246094 215.527344 Z M 163.246094 64.527344 "/><g clip-rule="nonzero" clip-path="url(#b4e61d31ae)"><path style=" stroke:none;fill-rule:nonzero;fill:#0e171f;fill-opacity:1;" d="M 220.988281 85.132812 C 215.957031 85.132812 212.050781 83.882812 209.261719 81.355469 C 206.472656 78.832031 205.066406 75.265625 205.066406 70.636719 C 205.066406 66.292969 206.488281 62.742188 209.355469 60.03125 C 212.21875 57.316406 216.089844 55.949219 220.988281 55.949219 C 226.167969 55.949219 230.132812 57.203125 232.921875 59.726562 C 235.710938 62.25 237.117188 65.875 237.117188 70.636719 C 237.117188 74.847656 235.691406 78.320312 232.828125 81.054688 C 229.960938 83.785156 226.015625 85.132812 220.988281 85.132812 Z M 208.75 215.507812 L 208.75 107.980469 L 233.851562 107.980469 L 233.851562 215.507812 Z M 208.75 215.507812 "/></g><path style=" stroke:none;fill-rule:nonzero;fill:#0e171f;fill-opacity:1;" d="M 303.832031 217.558594 C 292.542969 217.558594 282.578125 215.1875 273.945312 210.425781 C 265.292969 205.660156 258.574219 199.171875 253.738281 190.9375 C 248.898438 182.703125 246.488281 173.289062 246.488281 162.683594 C 246.488281 154.257812 247.855469 146.574219 250.570312 139.628906 C 253.28125 132.683594 257.058594 126.667969 261.898438 121.566406 C 266.734375 116.460938 272.503906 112.515625 279.238281 109.726562 C 285.976562 106.933594 293.355469 105.550781 301.382812 105.550781 C 308.460938 105.550781 315.046875 106.917969 321.175781 109.628906 C 327.304688 112.363281 332.597656 116.0625 337.09375 120.75 C 341.589844 125.453125 345.027344 131.035156 347.398438 137.484375 C 349.789062 143.957031 350.90625 150.976562 350.773438 158.605469 L 350.566406 167.371094 L 263.433594 167.371094 L 258.746094 150.234375 L 329.542969 150.234375 L 326.277344 153.707031 L 326.277344 149.210938 C 325.859375 145 324.515625 141.300781 322.199219 138.09375 C 319.882812 134.90625 316.921875 132.378906 313.320312 130.539062 C 309.714844 128.699219 305.730469 127.789062 301.382812 127.789062 C 294.703125 127.789062 289.105469 129.078125 284.550781 131.660156 C 280 134.238281 276.546875 137.960938 274.25 142.777344 C 271.933594 147.617188 270.777344 153.632812 270.777344 160.84375 C 270.777344 168.054688 272.238281 173.839844 275.160156 179 C 278.082031 184.183594 282.238281 188.148438 287.609375 190.9375 C 292.976562 193.726562 299.277344 195.128906 306.488281 195.128906 C 311.515625 195.128906 316.144531 194.316406 320.359375 192.683594 C 324.570312 191.050781 329.144531 188.128906 334.039062 183.917969 L 346.488281 201.257812 C 342.804688 204.65625 338.632812 207.558594 333.945312 209.929688 C 329.238281 212.320312 324.324219 214.179688 319.144531 215.546875 C 313.964844 216.914062 308.878906 217.597656 303.851562 217.597656 Z M 303.832031 217.558594 "/><path style=" stroke:none;fill-rule:nonzero;fill:#0e171f;fill-opacity:1;" d="M 360.753906 215.507812 L 360.753906 107.980469 L 385.234375 107.980469 L 385.652344 130.007812 L 380.964844 132.457031 C 382.328125 127.5625 384.988281 123.101562 388.914062 119.097656 C 392.859375 115.09375 397.566406 111.851562 402.992188 109.402344 C 408.421875 106.953125 414.019531 105.722656 419.730469 105.722656 C 427.886719 105.722656 434.71875 107.351562 440.242188 110.617188 C 445.761719 113.878906 449.898438 118.777344 452.6875 125.304688 C 455.476562 131.832031 456.863281 139.988281 456.863281 149.78125 L 456.863281 215.492188 L 431.777344 215.492188 L 431.777344 151.621094 C 431.777344 146.175781 431.039062 141.660156 429.539062 138.054688 C 428.039062 134.449219 425.726562 131.792969 422.59375 130.105469 C 419.464844 128.394531 415.648438 127.617188 411.171875 127.75 C 407.492188 127.75 404.132812 128.320312 401.078125 129.476562 C 398.023438 130.636719 395.367188 132.265625 393.109375 134.371094 C 390.867188 136.480469 389.085938 138.890625 387.792969 141.621094 C 386.503906 144.355469 385.859375 147.332031 385.859375 150.597656 L 385.859375 215.492188 L 360.753906 215.492188 Z M 360.753906 215.507812 "/><path style=" stroke:none;fill-rule:nonzero;fill:#0e171f;fill-opacity:1;" d="M 463.199219 131.242188 L 463.199219 107.980469 L 532.992188 107.980469 L 532.992188 131.242188 Z M 484.414062 215.507812 L 484.414062 80.636719 L 509.519531 80.636719 L 509.519531 215.507812 Z M 484.414062 215.507812 "/><path style=" stroke:none;fill-rule:nonzero;fill:#0e171f;fill-opacity:1;" d="M 1013.605469 197.671875 C 1016.164062 199.515625 1019.601562 199.550781 1022.21875 197.785156 L 1043.320312 183.535156 C 1044.382812 182.738281 1045.445312 182 1046.507812 181.296875 C 1047 180.976562 1047.472656 180.652344 1047.96875 180.3125 C 1047.777344 180.917969 1047.589844 181.507812 1047.417969 182.09375 C 1047.019531 183.367188 1046.675781 184.582031 1046.375 185.71875 L 1039.734375 210.292969 C 1038.898438 213.347656 1040.074219 216.589844 1042.636719 218.414062 L 1052.40625 225.394531 L 1067.585938 164.921875 L 1056.488281 156.992188 L 1004.058594 190.859375 Z M 1013.605469 197.671875 "/><path style=" stroke:none;fill-rule:nonzero;fill:#0e171f;fill-opacity:1;" d="M 1023.984375 102.117188 C 1023.035156 105.113281 1024.058594 108.394531 1026.546875 110.351562 L 1046.621094 126.023438 C 1047.703125 126.78125 1048.746094 127.578125 1049.730469 128.359375 C 1050.1875 128.71875 1050.660156 129.078125 1051.117188 129.441406 C 1050.492188 129.441406 1049.863281 129.441406 1049.257812 129.457031 C 1047.910156 129.476562 1046.660156 129.515625 1045.480469 129.589844 L 1020.074219 130.863281 C 1016.925781 131.015625 1014.191406 133.121094 1013.242188 136.136719 L 1009.621094 147.597656 L 1071.820312 143.347656 L 1075.9375 130.332031 L 1027.511719 90.941406 Z M 1023.984375 102.117188 "/><path style=" stroke:none;fill-rule:nonzero;fill:#0e171f;fill-opacity:1;" d="M 1118.097656 82.457031 C 1114.949219 82.476562 1112.121094 84.46875 1111.058594 87.449219 L 1102.367188 111.375 C 1101.96875 112.648438 1101.550781 113.859375 1101.097656 115.058594 C 1100.886719 115.605469 1100.699219 116.15625 1100.507812 116.707031 C 1100.300781 116.101562 1100.109375 115.53125 1099.921875 114.941406 C 1099.484375 113.671875 1099.046875 112.496094 1098.628906 111.394531 L 1089.558594 87.617188 C 1088.441406 84.660156 1085.59375 82.722656 1082.445312 82.761719 L 1070.433594 82.855469 L 1093.695312 140.691406 L 1107.339844 140.578125 L 1129.84375 82.363281 L 1118.136719 82.457031 Z M 1118.097656 82.457031 "/><path style=" stroke:none;fill-rule:nonzero;fill:#0e171f;fill-opacity:1;" d="M 1165.859375 165.871094 C 1164.851562 162.875 1162.101562 160.824219 1158.953125 160.710938 L 1133.507812 159.835938 C 1132.179688 159.835938 1130.886719 159.835938 1129.617188 159.78125 C 1129.027344 159.761719 1128.441406 159.742188 1127.851562 159.722656 C 1128.363281 159.34375 1128.859375 158.984375 1129.351562 158.605469 C 1130.414062 157.808594 1131.417969 157.027344 1132.328125 156.269531 L 1152.140625 140.292969 C 1154.605469 138.320312 1155.574219 135.019531 1154.570312 132.019531 L 1150.753906 120.617188 L 1102.9375 160.617188 L 1107.265625 173.554688 L 1169.578125 176.972656 L 1165.859375 165.851562 Z M 1165.859375 165.871094 "/><g clip-rule="nonzero" clip-path="url(#de78c49e37)"><path style=" stroke:none;fill-rule:nonzero;fill:#0e171f;fill-opacity:1;" d="M 1101.269531 237.082031 C 1103.8125 235.207031 1104.910156 231.941406 1104.039062 228.90625 L 1097.019531 204.445312 C 1096.601562 203.195312 1096.222656 201.941406 1095.878906 200.726562 C 1095.726562 200.160156 1095.558594 199.589844 1095.386719 199.039062 C 1095.898438 199.398438 1096.410156 199.761719 1096.902344 200.121094 C 1098.003906 200.898438 1099.046875 201.601562 1100.035156 202.226562 L 1121.34375 216.136719 C 1123.980469 217.863281 1127.433594 217.765625 1129.957031 215.890625 L 1139.617188 208.753906 L 1086.789062 175.625 L 1075.804688 183.726562 L 1091.820312 244.046875 L 1101.25 237.082031 Z M 1101.269531 237.082031 "/></g><path style=" stroke:none;fill-rule:nonzero;fill:#0e171f;fill-opacity:1;" d="M 545.304688 217.558594 L 545.304688 70.789062 L 607.789062 70.789062 C 617.429688 70.789062 625.570312 72.191406 632.210938 74.980469 C 638.851562 77.769531 643.878906 81.925781 647.3125 87.449219 C 650.730469 92.96875 652.457031 99.648438 652.457031 107.464844 C 652.457031 115.285156 650.292969 122.417969 645.949219 128.015625 C 641.621094 133.613281 635.53125 137.445312 627.710938 139.554688 L 627.503906 135.359375 C 634.070312 136.765625 639.800781 139.25 644.695312 142.796875 C 649.589844 146.363281 653.40625 150.765625 656.117188 156.003906 C 658.851562 161.242188 660.199219 167.21875 660.199219 173.9375 C 660.199219 181.070312 659.039062 187.351562 656.746094 192.796875 C 654.429688 198.242188 651.050781 202.796875 646.574219 206.421875 C 642.097656 210.0625 636.78125 212.816406 630.636719 214.695312 C 624.488281 216.570312 617.5625 217.519531 609.875 217.519531 L 545.304688 217.519531 Z M 571.925781 130.957031 L 605.265625 130.957031 C 609.328125 130.957031 612.835938 130.199219 615.851562 128.644531 C 618.871094 127.105469 621.203125 125.019531 622.875 122.363281 C 624.542969 119.707031 625.398438 116.632812 625.398438 113.140625 C 625.398438 107.542969 623.519531 103.179688 619.742188 100.027344 C 615.96875 96.878906 610.445312 95.304688 603.179688 95.304688 L 571.925781 95.304688 Z M 571.925781 193.023438 L 608.625 193.023438 C 613.785156 193.023438 618.167969 192.265625 621.714844 190.710938 C 625.285156 189.171875 628.015625 186.894531 629.894531 183.898438 C 631.773438 180.898438 632.722656 177.292969 632.722656 173.101562 C 632.722656 169.191406 631.714844 165.832031 629.6875 163.023438 C 627.65625 160.234375 624.753906 158.089844 620.976562 156.628906 C 617.199219 155.167969 612.722656 154.429688 607.5625 154.429688 L 571.90625 154.429688 L 571.90625 193.003906 Z M 571.925781 193.023438 "/></g></svg>