<svg xmlns="http://www.w3.org/2000/svg" xmlns:xlink="http://www.w3.org/1999/xlink" width="500" zoomAndPan="magnify" viewBox="0 0 375 374.999991" height="500" preserveAspectRatio="xMidYMid meet" version="1.2"><defs><clipPath id="b870372535"><path d="M 22.441406 176 L 149 176 L 149 313 L 22.441406 313 Z M 22.441406 176 "/></clipPath><clipPath id="ed5a6ff860"><path d="M 164 213 L 292 213 L 292 349.390625 L 164 349.390625 Z M 164 213 "/></clipPath></defs><g id="47671abf83"><rect x="0" width="375" y="0" height="374.999991" style="fill:#ffffff;fill-opacity:1;stroke:none;"/><rect x="0" width="375" y="0" height="374.999991" style="fill:#ffffff;fill-opacity:1;stroke:none;"/><g clip-rule="nonzero" clip-path="url(#b870372535)"><path style=" stroke:none;fill-rule:nonzero;fill:#cc2127;fill-opacity:1;" d="M 40.582031 257.128906 C 45.6875 260.796875 52.535156 260.871094 57.753906 257.355469 L 99.816406 228.949219 C 101.933594 227.359375 104.050781 225.882812 106.171875 224.484375 C 107.152344 223.839844 108.097656 223.199219 109.082031 222.515625 C 108.703125 223.726562 108.328125 224.898438 107.984375 226.074219 C 107.191406 228.605469 106.511719 231.027344 105.90625 233.296875 L 92.667969 282.28125 C 91.003906 288.371094 93.347656 294.839844 98.453125 298.46875 L 117.933594 312.390625 L 148.195312 191.839844 L 126.066406 176.03125 L 21.554688 243.546875 Z M 40.582031 257.128906 "/></g><path style=" stroke:none;fill-rule:nonzero;fill:#cc2127;fill-opacity:1;" d="M 61.269531 66.636719 C 59.378906 72.613281 61.421875 79.160156 66.378906 83.054688 L 106.398438 114.296875 C 108.554688 115.8125 110.632812 117.398438 112.601562 118.949219 C 113.507812 119.667969 114.453125 120.386719 115.363281 121.105469 C 114.113281 121.105469 112.867188 121.105469 111.65625 121.144531 C 108.96875 121.183594 106.472656 121.257812 104.128906 121.410156 L 53.480469 123.945312 C 47.199219 124.246094 41.753906 128.445312 39.863281 134.460938 L 32.636719 157.304688 L 156.628906 148.832031 L 164.835938 122.886719 L 68.308594 44.359375 L 61.273438 66.636719 Z M 61.269531 66.636719 "/><path style=" stroke:none;fill-rule:nonzero;fill:#cc2127;fill-opacity:1;" d="M 248.886719 27.453125 C 242.605469 27.488281 236.96875 31.460938 234.851562 37.398438 L 217.527344 85.097656 C 216.734375 87.632812 215.902344 90.050781 214.992188 92.433594 C 214.578125 93.53125 214.199219 94.628906 213.820312 95.726562 C 213.40625 94.515625 213.027344 93.382812 212.648438 92.207031 C 211.777344 89.675781 210.910156 87.328125 210.078125 85.136719 L 191.996094 37.738281 C 189.765625 31.839844 184.089844 27.980469 177.8125 28.058594 L 153.867188 28.246094 L 200.242188 143.539062 L 227.4375 143.3125 L 272.300781 27.261719 L 248.960938 27.453125 Z M 248.886719 27.453125 "/><path style=" stroke:none;fill-rule:nonzero;fill:#cc2127;fill-opacity:1;" d="M 344.09375 193.730469 C 342.085938 187.753906 336.601562 183.671875 330.324219 183.445312 L 279.601562 181.703125 C 276.953125 181.703125 274.378906 181.703125 271.84375 181.589844 C 270.671875 181.550781 269.5 181.515625 268.328125 181.476562 C 269.347656 180.71875 270.332031 180 271.316406 179.246094 C 273.433594 177.65625 275.4375 176.105469 277.253906 174.59375 L 316.746094 142.742188 C 321.660156 138.808594 323.589844 132.226562 321.585938 126.25 L 313.984375 103.519531 L 218.664062 183.253906 L 227.289062 209.050781 L 351.507812 215.859375 L 344.09375 193.695312 Z M 344.09375 193.730469 "/><g clip-rule="nonzero" clip-path="url(#ed5a6ff860)"><path style=" stroke:none;fill-rule:nonzero;fill:#cc2127;fill-opacity:1;" d="M 215.335938 335.691406 C 220.402344 331.945312 222.597656 325.441406 220.855469 319.386719 L 206.863281 270.632812 C 206.03125 268.132812 205.273438 265.636719 204.59375 263.21875 C 204.289062 262.082031 203.949219 260.949219 203.609375 259.851562 C 204.628906 260.570312 205.652344 261.289062 206.632812 262.007812 C 208.828125 263.558594 210.910156 264.957031 212.875 266.207031 L 255.355469 293.929688 C 260.613281 297.375 267.496094 297.183594 272.527344 293.441406 L 291.78125 279.21875 L 186.472656 213.175781 L 164.574219 229.324219 L 196.496094 349.574219 L 215.296875 335.691406 Z M 215.335938 335.691406 "/></g></g></svg>